<svg xmlns="http://www.w3.org/2000/svg" xmlns:xlink="http://www.w3.org/1999/xlink" viewBox="0 0 960 540" fill="none" stroke="none" stroke-linecap="square" stroke-miterlimit="10"><style><![CDATA[.B{fill-rule:evenodd}.C{fill:#000}.D{stroke-linejoin:round}.E{fill-opacity:0}.F{stroke-linecap:butt}.G{stroke:#6aa4c8}.H{stroke-width:8}.I{stroke-width:4}.J{fill:#fff}.K{stroke:#666}.L{fill:#e9edee}.M{fill:#babdbe}.N{stroke-dasharray:16.0,12.0}.O{stroke-dasharray:4.0,12.0}]]></style><clipPath id="A"><path d="M0 0h960v540H0V0z"/></clipPath><g clip-path="url(#A)"><g class="B"><path d="M0 0h960v540H0z" class="J"/><path d="M853.648 453.55c-25.34 0-38.008-24.268-50.677-48.535s-25.34-48.535-50.677-48.535" class="C E"/></g><path d="M853.648 453.55c-25.34 0-38.008-24.268-50.677-48.535s-25.34-48.535-50.677-48.535" class="D F G H"/><path d="M-1.577 462.163h963.276" class="B C E"/><path stroke="#ccc" d="M-1.577 462.163h963.276" class="D F H"/><path d="M109.646 453.55c25.34 0 38.008-24.268 50.677-48.535s25.34-48.535 50.677-48.535" class="B C E"/><path d="M109.646 453.55c25.34 0 38.008-24.268 50.677-48.535s25.34-48.535 50.677-48.535" class="D F G H"/><use xlink:href="#C" class="B J"/><use xlink:href="#C" class="D G I"/><path d="M246.654 354.053h194.583" class="B C E"/><path d="M246.654 354.053h194.583" class="D F G H"/><use xlink:href="#D" class="B J"/><use xlink:href="#D" class="D G I"/><use xlink:href="#D" x="76.205" class="B J"/><use xlink:href="#D" x="76.205" class="D G I"/><path d="M476.9 354.053h239.748" class="B C E"/><path stroke-dasharray="32.0,24.0" d="M476.9 354.053h239.748" class="D F G H"/><path d="M94.908 439.438V232.383" class="B C E"/><path stroke="#d9d9d9" d="M94.908 439.438V232.383" class="D F I N"/><use xlink:href="#D" x="154.031" class="B J"/><use xlink:href="#D" x="154.031" class="D G I"/><use xlink:href="#E" fill="#666" class="B"/><use xlink:href="#E" class="D H K"/><path d="M734.467 336.226V232.383" class="B C E"/><path stroke="#d9d9d9" d="M734.467 336.226V232.383" class="D F I N"/><g class="B"><path fill="#cfe2f3" d="M14.75 31.514h160.315v200.882H14.75z"/><path d="M14.75 31.514h160.315v42.1H14.75z" class="C E"/></g><path d="M28.126 47.64q.734 0 1.344.25.61.234 1.063.703.453.453.703 1.14.25.672.25 1.53 0 .344-.078.453-.062.11-.266.11h-5.39q.016.766.203 1.344.203.563.53.938.344.375.797.563.47.188 1.047.188.53 0 .922-.11.39-.125.672-.266.28-.156.47-.28.188-.125.313-.125.188 0 .28.14l.39.516q-.25.328-.625.563-.375.234-.797.39-.406.14-.86.22-.453.078-.89.078-.844 0-1.547-.28-.703-.28-1.22-.828-.516-.547-.812-1.36-.28-.812-.28-1.86 0-.844.25-1.578.266-.734.75-1.266.5-.547 1.203-.86.703-.312 1.578-.312zm.03 1.047q-1.03 0-1.625.61-.594.594-.734 1.64h4.406q0-.5-.14-.906-.125-.406-.39-.703-.266-.312-.656-.47-.375-.172-.86-.172zm6.56 3.03l-2.72-3.953h1.36q.172 0 .25.063.094.063.156.156l1.984 3.047q.063-.234.203-.453l1.75-2.562q.078-.11.156-.172.078-.078.203-.078h1.313L36.64 51.64l2.844 4.234h-1.375q-.172 0-.28-.094-.094-.094-.156-.203l-2.047-3.172q-.047.234-.156.406l-1.89 2.766q-.078.11-.172.203-.094.094-.25.094h-1.28l2.844-4.156zm12.126 4.156h-.64q-.203 0-.328-.062-.125-.062-.172-.28l-.156-.75q-.328.297-.64.53-.297.22-.64.375-.328.156-.703.234-.375.078-.844.078-.47 0-.89-.125-.406-.14-.72-.39-.297-.266-.484-.672-.172-.406-.172-.97 0-.47.266-.906.266-.453.844-.797.594-.344 1.547-.562.953-.22 2.328-.25v-.64q0-.937-.406-1.422-.406-.484-1.187-.484-.53 0-.89.14-.344.125-.61.297-.25.156-.453.297-.187.125-.36.125-.156 0-.266-.078-.094-.078-.156-.187l-.266-.453q.672-.656 1.453-.97.78-.328 1.72-.328.672 0 1.203.234.53.22.89.625.36.39.547.97.188.563.188 1.234v5.188zM43.14 55q.375 0 .688-.078.313-.078.578-.203.28-.14.53-.344.266-.203.5-.453v-1.687q-.984.03-1.672.156-.687.11-1.125.313-.422.203-.625.484-.187.266-.187.594 0 .328.094.563.11.234.28.375.172.14.406.22.25.063.53.063zm5.862.875v-8.11h.844q.297 0 .39.297l.094.844q.453-.562 1-.906.563-.36 1.297-.36.828 0 1.328.47.516.453.734 1.22.172-.437.438-.75.28-.328.625-.53.344-.22.734-.312.39-.094.797-.094.64 0 1.14.203.5.203.844.594.344.39.53.97.188.578.188 1.313v5.156h-1.422v-5.156q0-.953-.422-1.437-.422-.5-1.203-.5-.36 0-.672.125-.312.125-.562.36-.234.234-.375.61-.14.36-.14.844v5.156h-1.422v-5.156q0-.984-.39-1.453-.39-.484-1.14-.484-.53 0-.984.28-.453.28-.828.766v6.047h-1.422zm13.136 2.75v-10.86h.844q.297 0 .39.297l.11.97q.53-.64 1.187-1.016.672-.39 1.547-.39.688 0 1.25.266.578.266.97.797.406.53.625 1.313.22.766.22 1.766 0 .906-.25 1.688-.234.766-.687 1.328-.437.563-1.094.89-.656.313-1.47.313-.75 0-1.28-.25-.53-.25-.937-.703v3.594h-1.422zm3.61-9.844q-.703 0-1.234.328-.516.313-.953.89v3.922q.39.53.86.75.47.22 1.047.22 1.125 0 1.734-.812.61-.812.61-2.312 0-.78-.14-1.344-.14-.578-.406-.937-.266-.375-.656-.53-.375-.172-.86-.172zm6.8-4.687v11.78h-1.422v-11.78h1.422zm5.72 3.547q.734 0 1.344.25.61.234 1.063.703.453.453.703 1.14.25.672.25 1.53 0 .344-.078.453-.062.11-.266.11h-5.39q.016.766.203 1.344.203.563.53.938.344.375.797.563.47.188 1.047.188.53 0 .922-.11.39-.125.672-.266.28-.156.47-.28.188-.125.313-.125.188 0 .28.14l.39.516q-.25.328-.625.563-.375.234-.797.39-.406.14-.86.22-.453.078-.89.078-.844 0-1.547-.28-.703-.28-1.22-.828-.516-.547-.812-1.36-.28-.812-.28-1.86 0-.844.25-1.578.266-.734.75-1.266.5-.547 1.203-.86.703-.312 1.578-.312zm.03 1.047q-1.03 0-1.625.61-.594.594-.734 1.64h4.406q0-.5-.14-.906-.125-.406-.39-.703-.266-.312-.656-.47-.375-.172-.86-.172zM82.98 55q0-.22.078-.39.078-.187.203-.328.14-.14.313-.22.188-.078.406-.078.203 0 .375.078.188.078.328.22.14.14.22.328.078.172.078.39 0 .22-.078.406-.078.172-.22.313-.14.125-.328.203-.172.078-.375.078-.22 0-.406-.078-.172-.078-.312-.203-.125-.14-.203-.312-.078-.187-.078-.406zm9.564.875q-.312 0-.39-.297l-.125-.984q-.516.64-1.187 1.016-.672.375-1.53.375-.703 0-1.266-.266-.562-.266-.97-.78-.39-.53-.61-1.297-.22-.78-.22-1.797 0-.89.234-1.656.25-.78.688-1.344.453-.562 1.094-.89.656-.328 1.484-.328.75 0 1.266.25.53.25.953.72v-4.5h1.422v11.78h-.844zm-2.766-1.047q.703 0 1.22-.312.53-.328.97-.906v-3.922q-.39-.53-.86-.734-.47-.22-1.03-.22-1.14 0-1.75.813-.61.813-.61 2.297 0 .797.125 1.36.14.563.406.938.266.36.64.53.39.156.89.156zm9.2-7.187q.734 0 1.344.25.61.234 1.063.703.453.453.703 1.14.25.672.25 1.53 0 .344-.078.453-.062.11-.266.11h-5.39q.016.766.203 1.344.203.563.53.938.344.375.797.563.47.188 1.047.188.53 0 .922-.11.39-.125.672-.266.28-.156.47-.28.188-.125.313-.125.188 0 .28.14l.39.516q-.25.328-.625.563-.375.234-.797.39-.406.14-.86.22-.453.078-.89.078-.844 0-1.547-.28-.703-.28-1.22-.828-.516-.547-.812-1.36-.28-.812-.28-1.86 0-.844.25-1.578.266-.734.75-1.266.5-.547 1.203-.86.703-.312 1.578-.312zm.03 1.047q-1.03 0-1.625.61-.594.594-.734 1.64h4.406q0-.5-.14-.906-.125-.406-.39-.703-.266-.312-.656-.47-.375-.172-.86-.172zm3.9-.922h1.172q.172 0 .28.094.11.094.156.203l2.063 5.22q.11.297.172.578.063.28.125.563.063-.28.125-.562.078-.28.188-.578l2.078-5.22q.047-.125.156-.203.11-.094.266-.094h1.125l-3.312 8.11h-1.28l-3.312-8.11z" class="C"/><g class="B"><path d="M24.362 73.625H163.26v29.71l-5.942 5.942H24.362z" class="L"/><path d="M157.317 109.278l1.188-4.754 4.754-1.188z" class="M"/><path d="M157.317 109.278l1.188-4.754 4.754-1.188-5.942 5.942H24.362V73.625H163.26v29.71" class="C E"/></g><path d="M46.565 88.728q0 1.5-.484 2.734-.47 1.22-1.344 2.11-.86.875-2.078 1.36-1.203.47-2.672.47h-5V82.025h5q1.47 0 2.672.484 1.22.484 2.078 1.375.875.875 1.344 2.11.484 1.22.484 2.734zm-1.844 0q0-1.234-.344-2.203-.328-.97-.953-1.64-.61-.672-1.484-1.03-.875-.36-1.953-.36H36.8v10.438h3.188q1.078 0 1.953-.344.875-.36 1.484-1.016.625-.672.953-1.64.344-.984.344-2.203zm7.798-2.922q.844 0 1.563.28.72.28 1.234.828.53.53.813 1.328.297.78.297 1.78 0 .39-.078.53-.078.125-.312.125h-6.297q.016.89.234 1.563.234.656.625 1.11.39.438.938.656.547.22 1.203.22.625 0 1.078-.14.453-.156.78-.312.328-.172.547-.312.22-.156.375-.156.22 0 .328.156l.47.61q-.312.375-.75.656-.422.266-.922.453-.484.172-1.016.25-.516.094-1.016.094-.984 0-1.812-.328-.828-.328-1.437-.97-.594-.64-.937-1.578-.328-.937-.328-2.172 0-.984.297-1.844.313-.86.875-1.484.578-.625 1.39-.984.828-.36 1.86-.36zm.03 1.22q-1.203 0-1.89.703-.687.688-.86 1.922h5.14q0-.578-.172-1.062-.156-.484-.47-.828-.297-.36-.75-.547-.437-.187-1-.187zm5.995 11.578V85.947h.984q.36 0 .453.344l.14 1.125q.61-.734 1.39-1.187.78-.453 1.797-.453.813 0 1.47.313.656.313 1.125.938.47.61.72 1.516.25.906.25 2.078 0 1.047-.28 1.953-.28.89-.797 1.547-.516.656-1.28 1.03-.766.375-1.72.375-.875 0-1.5-.28-.61-.297-1.094-.828v4.188h-1.656zM62.75 87.12q-.812 0-1.422.375-.61.375-1.125 1.063v4.563q.47.625 1.016.875.547.25 1.22.25 1.313 0 2.016-.937.703-.953.703-2.687 0-.922-.156-1.578-.156-.672-.47-1.094-.312-.422-.766-.625-.437-.203-1.016-.203zm7.94-5.453V95.4H69.03V81.666h1.656zm6.76 4.14q1.03 0 1.86.344.844.344 1.422.984.594.625.906 1.53.313.89.313 2 0 1.125-.312 2.03-.312.89-.906 1.53-.578.625-1.422.97-.828.328-1.86.328-1.03 0-1.875-.328-.828-.344-1.422-.97-.578-.64-.906-1.53-.312-.906-.312-2.03 0-1.11.313-2 .328-.906.906-1.53.594-.64 1.422-.984.844-.344 1.875-.344zm0 8.422q1.39 0 2.078-.937.703-.937.703-2.61 0-1.687-.703-2.625-.687-.953-2.078-.953-.703 0-1.234.25-.516.234-.875.703-.344.453-.516 1.125-.172.656-.172 1.5 0 .844.172 1.5.172.656.516 1.11.36.453.875.703.53.234 1.234.234zm9.068 3.97q-.078.172-.203.28-.125.125-.39.125h-1.234l1.734-3.75-3.906-8.906h1.438q.22 0 .344.11.125.11.172.234L87 92.244q.078.203.14.422.063.203.11.406.063-.203.125-.406.078-.22.156-.422l2.453-5.953q.063-.14.188-.234.14-.11.297-.11h1.328l-5.28 12.25zm6.786-2.797v-9.453h.984q.36 0 .453.344l.125.97q.516-.64 1.156-1.047.656-.406 1.516-.406.97 0 1.563.53.594.53.844 1.438.203-.516.516-.89.328-.375.72-.61.406-.25.86-.36.453-.11.922-.11.75 0 1.328.234.578.234.984.703.406.453.625 1.125.22.656.22 1.516V95.4h-1.656v-6.016q0-1.11-.5-1.687-.484-.578-1.406-.578-.406 0-.78.156-.36.14-.64.422-.28.28-.453.703-.156.422-.156.984V95.4h-1.656v-6.016q0-1.14-.47-1.703-.453-.562-1.328-.562-.61 0-1.14.344-.53.328-.97.89V95.4h-1.656zm19.067-9.594q.844 0 1.563.28.72.28 1.234.828.53.53.813 1.328.297.78.297 1.78 0 .39-.078.53-.078.125-.312.125h-6.297q.016.89.234 1.563.234.656.625 1.11.39.438.938.656.547.22 1.203.22.625 0 1.078-.14.453-.156.78-.312.328-.172.547-.312.22-.156.375-.156.22 0 .328.156l.47.61q-.312.375-.75.656-.422.266-.922.453-.484.172-1.016.25-.516.094-1.016.094-.984 0-1.812-.328-.828-.328-1.437-.97-.594-.64-.937-1.578-.328-.937-.328-2.172 0-.984.297-1.844.313-.86.875-1.484.578-.625 1.39-.984.828-.36 1.86-.36zm.03 1.22q-1.203 0-1.89.703-.687.688-.86 1.922h5.14q0-.578-.172-1.062-.156-.484-.47-.828-.297-.36-.75-.547-.437-.187-1-.187zm5.995 8.375v-9.453h.984q.36 0 .453.344l.125 1.03q.625-.687 1.375-1.094.766-.422 1.766-.422.78 0 1.36.266.594.25.984.72.406.47.61 1.14.203.656.203 1.453V95.4h-1.656v-6.016q0-1.078-.5-1.672-.484-.594-1.484-.594-.734 0-1.375.36-.64.36-1.187.97V95.4h-1.656zm13.232.156q-1.11 0-1.72-.625-.594-.625-.594-1.812v-5.78h-1.14q-.156 0-.266-.078-.094-.094-.094-.28v-.656l1.547-.203.39-2.922q.016-.14.11-.22.11-.094.266-.094h.844v3.25h2.703v1.203h-2.703V93q0 .594.28.89.297.28.75.28.266 0 .453-.062.203-.078.328-.156.14-.078.234-.14.11-.078.188-.078.125 0 .234.156l.484.797q-.437.39-1.047.625-.594.234-1.25.234z" class="C"/><g class="B"><path d="M24.362 123.44H163.26v29.71l-5.942 5.942H24.362z" class="L"/><path d="M157.317 159.094l1.188-4.754 4.754-1.188z" class="M"/><path d="M157.317 159.094l1.188-4.754 4.754-1.188-5.942 5.942H24.362V123.44H163.26v29.71" class="C E"/></g><path d="M41.83 133.935q-.078.14-.172.22-.094.063-.25.063-.156 0-.375-.156-.203-.156-.53-.344-.312-.203-.766-.36-.453-.156-1.094-.156-.61 0-1.078.172-.47.156-.78.438-.312.28-.47.656-.156.375-.156.813 0 .563.266.938.28.36.734.625.453.266 1.03.453.578.188 1.172.39.61.203 1.172.47.578.25 1.03.64.453.39.72.97.28.563.28 1.39 0 .875-.297 1.656-.297.766-.875 1.344-.562.563-1.406.89-.828.328-1.89.328-1.297 0-2.375-.47-1.062-.484-1.812-1.28l.516-.86q.078-.11.188-.172.11-.078.234-.078.188 0 .438.22.266.203.64.47.375.25.906.453.547.203 1.313.203.64 0 1.14-.172.516-.172.86-.484.36-.328.547-.78.188-.453.188-1 0-.61-.28-.984-.28-.39-.734-.656-.437-.266-1.016-.437-.562-.187-1.172-.375-.594-.203-1.172-.453-.578-.25-1.03-.64-.437-.406-.72-1-.266-.61-.266-1.5 0-.703.266-1.36.28-.672.797-1.187.53-.516 1.297-.812.766-.312 1.766-.312 1.125 0 2.047.36.922.344 1.61 1.016l-.437.86zm6.528 1.688q.844 0 1.563.28.72.28 1.234.828.53.53.813 1.328.297.78.297 1.78 0 .39-.078.53-.078.125-.312.125h-6.297q.016.89.234 1.563.234.656.625 1.11.39.438.938.656.547.22 1.203.22.625 0 1.078-.14.453-.156.78-.312.328-.172.547-.312.22-.156.375-.156.22 0 .328.156l.47.61q-.312.375-.75.656-.422.266-.922.453-.484.172-1.016.25-.516.094-1.016.094-.984 0-1.812-.328-.828-.328-1.437-.97-.594-.64-.937-1.578-.328-.937-.328-2.172 0-.984.297-1.844.313-.86.875-1.484.578-.625 1.39-.984.828-.36 1.86-.36zm.03 1.22q-1.203 0-1.89.703-.687.688-.86 1.922h5.14q0-.578-.172-1.062-.156-.484-.47-.828-.297-.36-.75-.547-.437-.187-1-.187zm5.995 8.375v-9.453h.953q.266 0 .375.11.11.094.14.344l.11 1.484q.484-.984 1.188-1.547.72-.562 1.688-.562.39 0 .703.094.328.094.594.25l-.22 1.234q-.062.234-.28.234-.14 0-.406-.078-.266-.094-.75-.094-.875 0-1.453.5-.578.5-.984 1.47v6.016h-1.656zm6.33-9.453h1.36q.188 0 .313.11.14.094.203.234l2.39 6.094q.14.328.203.672.078.328.14.656.078-.328.156-.656.094-.344.22-.672l2.422-6.094q.063-.14.188-.234.125-.11.313-.11h1.297l-3.86 9.453h-1.5l-3.844-9.453zm12.583 0v9.453h-1.656v-9.453H73.3zm.375-2.97q0 .25-.094.47-.094.203-.266.375-.156.156-.375.25-.22.094-.453.094-.25 0-.47-.094-.203-.094-.36-.25-.156-.172-.25-.375-.094-.22-.094-.47 0-.234.094-.453.094-.22.25-.375.156-.172.36-.266.22-.094.47-.094.234 0 .453.094.22.094.375.266.172.156.266.375.094.22.094.453zm9 4.656q-.078.094-.156.156-.078.047-.22.047-.14 0-.297-.11-.156-.11-.422-.25-.25-.14-.61-.25-.36-.125-.875-.125-.687 0-1.22.25-.53.234-.89.703-.36.47-.547 1.14-.187.656-.187 1.47 0 .86.203 1.53.203.672.547 1.125.36.453.86.688.516.234 1.156.234.594 0 .984-.14.39-.156.656-.328.266-.172.422-.312.172-.156.344-.156.22 0 .313.156l.47.61q-.61.766-1.53 1.11-.922.344-1.953.344-.89 0-1.656-.312-.75-.328-1.312-.953-.562-.625-.89-1.53-.312-.906-.312-2.062 0-1.047.297-1.937.297-.906.86-1.547.563-.656 1.39-1.016.828-.36 1.906-.36.984 0 1.75.328.766.313 1.36.89l-.437.61zm6.01-1.828q.844 0 1.563.28.72.28 1.234.828.53.53.813 1.328.297.78.297 1.78 0 .39-.078.53-.078.125-.312.125h-6.297q.016.89.234 1.563.234.656.625 1.11.39.438.938.656.547.22 1.203.22.625 0 1.078-.14.453-.156.78-.312.328-.172.547-.312.22-.156.375-.156.22 0 .328.156l.47.61q-.312.375-.75.656-.422.266-.922.453-.484.172-1.016.25-.516.094-1.016.094-.984 0-1.812-.328-.828-.328-1.437-.97-.594-.64-.937-1.578-.328-.937-.328-2.172 0-.984.297-1.844.313-.86.875-1.484.578-.625 1.39-.984.828-.36 1.86-.36zm.03 1.22q-1.203 0-1.89.703-.687.688-.86 1.922h5.14q0-.578-.172-1.062-.156-.484-.47-.828-.297-.36-.75-.547-.437-.187-1-.187z" class="C"/><path d="M94.908 167.88v61.165" class="B C E"/><path d="M94.908 167.88v61.165" class="D F I K O"/><g class="B"><path fill="#cfe2f3" d="M654.3 31.514h160.315v200.882H654.3z"/><path d="M654.3 31.514h160.315v42.1H654.3z" class="C E"/></g><path d="M664.482 58.624v-10.86h.844q.297 0 .39.297l.11.97q.53-.64 1.188-1.016.672-.39 1.547-.39.688 0 1.25.266.578.266.97.797.406.53.625 1.313.22.766.22 1.766 0 .906-.25 1.688-.234.766-.687 1.328-.437.563-1.094.89-.656.313-1.47.313-.75 0-1.28-.25-.53-.25-.937-.703v3.594h-1.422zm3.61-9.844q-.703 0-1.234.328-.516.313-.953.89v3.922q.39.53.86.75.47.22 1.047.22 1.125 0 1.734-.812.61-.812.61-2.312 0-.78-.14-1.344-.14-.578-.406-.937-.266-.375-.656-.53-.375-.172-.86-.172zm5.223 7.094v-8.11h.813q.234 0 .313.094.094.094.125.297l.094 1.266q.422-.844 1.03-1.312.61-.484 1.438-.484.328 0 .594.078.28.078.516.22l-.187 1.063q-.047.188-.25.188-.11 0-.344-.062-.22-.078-.64-.078-.75 0-1.25.438-.5.422-.828 1.25v5.156h-1.422zm7.573-1.094h2.47v-7.812q0-.344.016-.703l-2.047 1.75q-.078.063-.156.094-.078.016-.156.016-.125 0-.22-.047-.094-.047-.14-.125l-.453-.61 3.422-2.953h1.156v10.39h2.25v1.094h-6.14V54.78zm7.686.22q0-.22.078-.39.078-.187.203-.328.14-.14.313-.22.188-.078.406-.078.203 0 .375.078.188.078.328.22.14.14.22.328.078.172.078.39 0 .22-.078.406-.078.172-.22.313-.14.125-.328.203-.172.078-.375.078-.22 0-.406-.078-.172-.078-.312-.203-.125-.14-.203-.312-.078-.187-.078-.406zm7.064-7.36q.734 0 1.344.25.61.234 1.063.703.453.453.703 1.14.25.672.25 1.53 0 .344-.078.453-.062.11-.266.11h-5.39q.016.766.203 1.344.203.563.53.938.344.375.797.563.47.188 1.047.188.53 0 .922-.11.39-.125.672-.266.28-.156.47-.28.188-.125.313-.125.188 0 .28.14l.39.516q-.25.328-.625.563-.375.234-.797.39-.406.14-.86.22-.453.078-.89.078-.844 0-1.547-.28-.703-.28-1.22-.828-.516-.547-.812-1.36-.28-.812-.28-1.86 0-.844.25-1.578.266-.734.75-1.266.5-.547 1.203-.86.703-.312 1.578-.312zm.03 1.047q-1.03 0-1.625.61-.594.594-.734 1.64h4.406q0-.5-.14-.906-.125-.406-.39-.703-.266-.312-.656-.47-.375-.172-.86-.172zm6.56 3.03l-2.72-3.953h1.36q.172 0 .25.063.094.063.156.156l1.984 3.047q.063-.234.203-.453l1.75-2.562q.078-.11.156-.172.078-.078.203-.078h1.313l-2.734 3.875 2.844 4.234h-1.375q-.172 0-.28-.094-.094-.094-.156-.203l-2.047-3.172q-.047.234-.156.406l-1.89 2.766q-.078.11-.172.203-.094.094-.25.094h-1.28l2.844-4.156zm12.126 4.156h-.64q-.203 0-.328-.062-.125-.062-.172-.28l-.156-.75q-.328.297-.64.53-.297.22-.64.375-.328.156-.703.234-.375.078-.844.078-.47 0-.89-.125-.406-.14-.72-.39-.297-.266-.484-.672-.172-.406-.172-.97 0-.47.266-.906.266-.453.844-.797.594-.344 1.547-.562.953-.22 2.328-.25v-.64q0-.937-.406-1.422-.406-.484-1.187-.484-.53 0-.89.14-.344.125-.61.297-.25.156-.453.297-.187.125-.36.125-.156 0-.266-.078-.094-.078-.156-.187l-.266-.453q.672-.656 1.453-.97.78-.328 1.72-.328.672 0 1.203.234.53.22.89.625.36.39.547.97.188.563.188 1.234v5.188zM710.65 55q.375 0 .688-.078.313-.078.578-.203.28-.14.53-.344.266-.203.5-.453v-1.687q-.984.03-1.672.156-.687.11-1.125.313-.422.203-.625.484-.187.266-.187.594 0 .328.094.563.11.234.28.375.172.14.406.22.25.063.53.063zm5.862.875v-8.11h.844q.297 0 .39.297l.094.844q.453-.562 1-.906.563-.36 1.297-.36.828 0 1.328.47.516.453.734 1.22.172-.437.438-.75.28-.328.625-.53.344-.22.734-.312.39-.094.797-.094.64 0 1.14.203.5.203.844.594.344.39.53.97.188.578.188 1.313v5.156h-1.422v-5.156q0-.953-.422-1.437-.422-.5-1.203-.5-.36 0-.672.125-.312.125-.562.36-.234.234-.375.61-.14.36-.14.844v5.156h-1.422v-5.156q0-.984-.39-1.453-.39-.484-1.14-.484-.53 0-.984.28-.453.28-.828.766v6.047h-1.422zm13.136 2.75v-10.86h.844q.297 0 .39.297l.11.97q.53-.64 1.188-1.016.672-.39 1.547-.39.688 0 1.25.266.578.266.97.797.406.53.625 1.313.22.766.22 1.766 0 .906-.25 1.688-.234.766-.687 1.328-.437.563-1.094.89-.656.313-1.47.313-.75 0-1.28-.25-.53-.25-.937-.703v3.594h-1.422zm3.61-9.844q-.703 0-1.234.328-.516.313-.953.89v3.922q.39.53.86.75.47.22 1.047.22 1.125 0 1.734-.812.61-.812.61-2.312 0-.78-.14-1.344-.14-.578-.406-.937-.266-.375-.656-.53-.375-.172-.86-.172zm6.8-4.687v11.78h-1.422v-11.78h1.422zm5.72 3.547q.734 0 1.344.25.61.234 1.063.703.453.453.703 1.14.25.672.25 1.53 0 .344-.078.453-.062.11-.266.11h-5.39q.016.766.203 1.344.203.563.53.938.344.375.797.563.47.188 1.047.188.53 0 .922-.11.39-.125.672-.266.28-.156.47-.28.188-.125.313-.125.188 0 .28.14l.39.516q-.25.328-.625.563-.375.234-.797.39-.406.14-.86.22-.453.078-.89.078-.844 0-1.547-.28-.703-.28-1.22-.828-.516-.547-.812-1.36-.28-.812-.28-1.86 0-.844.25-1.578.266-.734.75-1.266.5-.547 1.203-.86.703-.312 1.578-.312zm.03 1.047q-1.03 0-1.625.61-.594.594-.734 1.64h4.406q0-.5-.14-.906-.125-.406-.39-.703-.266-.312-.656-.47-.375-.172-.86-.172zm4.68 6.313q0-.22.078-.39.078-.187.203-.328.14-.14.313-.22.188-.078.406-.078.203 0 .375.078.188.078.328.22.14.14.22.328.078.172.078.39 0 .22-.078.406-.078.172-.22.313-.14.125-.328.203-.172.078-.375.078-.22 0-.406-.078-.172-.078-.312-.203-.125-.14-.203-.312-.078-.187-.078-.406zm9.564.875q-.312 0-.39-.297l-.125-.984q-.516.64-1.187 1.016-.672.375-1.53.375-.703 0-1.266-.266-.562-.266-.97-.78-.39-.53-.61-1.297-.22-.78-.22-1.797 0-.89.234-1.656.25-.78.688-1.344.453-.562 1.094-.89.656-.328 1.484-.328.75 0 1.266.25.53.25.953.72v-4.5h1.422v11.78h-.844zm-2.766-1.047q.703 0 1.22-.312.53-.328.97-.906v-3.922q-.39-.53-.86-.734-.47-.22-1.03-.22-1.14 0-1.75.813-.61.813-.61 2.297 0 .797.125 1.36.14.563.406.938.266.36.64.53.39.156.89.156zm9.21-7.187q.734 0 1.344.25.61.234 1.063.703.453.453.703 1.14.25.672.25 1.53 0 .344-.078.453-.062.11-.266.11h-5.39q.016.766.203 1.344.203.563.53.938.344.375.797.563.47.188 1.047.188.53 0 .922-.11.39-.125.672-.266.28-.156.47-.28.188-.125.313-.125.188 0 .28.14l.39.516q-.25.328-.625.563-.375.234-.797.39-.406.14-.86.22-.453.078-.89.078-.844 0-1.547-.28-.703-.28-1.22-.828-.516-.547-.812-1.36-.28-.812-.28-1.86 0-.844.25-1.578.266-.734.75-1.266.5-.547 1.203-.86.703-.312 1.578-.312zm.03 1.047q-1.03 0-1.625.61-.594.594-.734 1.64h4.406q0-.5-.14-.906-.125-.406-.39-.703-.266-.312-.656-.47-.375-.172-.86-.172zm3.9-.922h1.172q.172 0 .28.094.11.094.156.203l2.063 5.22q.11.297.172.578.063.28.125.563.063-.28.125-.562.078-.28.188-.578l2.078-5.22q.047-.125.156-.203.11-.094.266-.094h1.125l-3.312 8.11h-1.28l-3.312-8.11z" class="C"/><g class="B"><path d="M663.92 73.625H802.82v29.71l-5.942 5.942H663.92z" class="L"/><path d="M796.877 109.278l1.188-4.754 4.754-1.188z" class="M"/><path d="M796.877 109.278l1.188-4.754 4.754-1.188-5.942 5.942H663.92V73.625H802.82v29.71" class="C E"/></g><path d="M686.124 88.728q0 1.5-.484 2.734-.47 1.22-1.344 2.11-.86.875-2.078 1.36-1.203.47-2.672.47h-5V82.025h5q1.47 0 2.672.484 1.22.484 2.078 1.375.875.875 1.344 2.11.484 1.22.484 2.734zm-1.844 0q0-1.234-.344-2.203-.328-.97-.953-1.64-.61-.672-1.484-1.03-.875-.36-1.953-.36h-3.187v10.438h3.188q1.078 0 1.953-.344.875-.36 1.484-1.016.625-.672.953-1.64.344-.984.344-2.203zm7.798-2.922q.844 0 1.563.28.72.28 1.234.828.53.53.813 1.328.297.78.297 1.78 0 .39-.078.53-.078.125-.312.125h-6.297q.016.89.234 1.563.234.656.625 1.11.39.438.938.656.547.22 1.203.22.625 0 1.078-.14.453-.156.78-.312.328-.172.547-.312.22-.156.375-.156.22 0 .328.156l.47.61q-.312.375-.75.656-.422.266-.922.453-.484.172-1.016.25-.516.094-1.016.094-.984 0-1.812-.328-.828-.328-1.437-.97-.594-.64-.937-1.578-.328-.937-.328-2.172 0-.984.297-1.844.313-.86.875-1.484.578-.625 1.39-.984.828-.36 1.86-.36zm.03 1.22q-1.203 0-1.89.703-.687.688-.86 1.922h5.14q0-.578-.172-1.062-.156-.484-.47-.828-.297-.36-.75-.547-.437-.187-1-.187zm5.995 11.578V85.947h.984q.36 0 .453.344l.14 1.125q.61-.734 1.39-1.187.78-.453 1.797-.453.813 0 1.47.313.656.313 1.125.938.47.61.72 1.516.25.906.25 2.078 0 1.047-.28 1.953-.28.89-.797 1.547-.516.656-1.28 1.03-.766.375-1.72.375-.875 0-1.5-.28-.61-.297-1.094-.828v4.188h-1.656zm4.203-11.484q-.812 0-1.422.375-.61.375-1.125 1.063v4.563q.47.625 1.016.875.547.25 1.22.25 1.313 0 2.016-.937.703-.953.703-2.687 0-.922-.156-1.578-.156-.672-.47-1.094-.312-.422-.766-.625-.437-.203-1.016-.203zm7.94-5.453V95.4H708.6V81.666h1.656zm6.76 4.14q1.03 0 1.86.344.844.344 1.422.984.594.625.906 1.53.313.89.313 2 0 1.125-.312 2.03-.312.89-.906 1.53-.578.625-1.422.97-.828.328-1.86.328-1.03 0-1.875-.328-.828-.344-1.422-.97-.578-.64-.906-1.53-.312-.906-.312-2.03 0-1.11.313-2 .328-.906.906-1.53.594-.64 1.422-.984.844-.344 1.875-.344zm0 8.422q1.39 0 2.078-.937.703-.937.703-2.61 0-1.687-.703-2.625-.687-.953-2.078-.953-.703 0-1.234.25-.516.234-.875.703-.344.453-.516 1.125-.172.656-.172 1.5 0 .844.172 1.5.172.656.516 1.11.36.453.875.703.53.234 1.234.234zm9.068 3.97q-.078.172-.203.28-.125.125-.39.125h-1.234l1.734-3.75-3.906-8.906h1.438q.22 0 .344.11.125.11.172.234l2.53 5.953q.078.203.14.422.063.203.11.406.063-.203.125-.406.078-.22.156-.422l2.453-5.953q.063-.14.188-.234.14-.11.297-.11h1.328l-5.28 12.25zm6.786-2.797v-9.453h.984q.36 0 .453.344l.125.97q.516-.64 1.156-1.047.656-.406 1.516-.406.97 0 1.563.53.594.53.844 1.438.203-.516.516-.89.328-.375.72-.61.406-.25.86-.36.453-.11.922-.11.75 0 1.328.234.578.234.984.703.406.453.625 1.125.22.656.22 1.516V95.4h-1.656v-6.016q0-1.11-.5-1.687-.484-.578-1.406-.578-.406 0-.78.156-.36.14-.64.422-.28.28-.453.703-.156.422-.156.984V95.4h-1.656v-6.016q0-1.14-.47-1.703-.453-.562-1.328-.562-.61 0-1.14.344-.53.328-.97.89V95.4h-1.656zm19.067-9.594q.844 0 1.563.28.72.28 1.234.828.53.53.813 1.328.297.78.297 1.78 0 .39-.078.53-.078.125-.312.125h-6.297q.016.89.234 1.563.234.656.625 1.11.39.438.938.656.547.22 1.203.22.625 0 1.078-.14.453-.156.78-.312.328-.172.547-.312.22-.156.375-.156.22 0 .328.156l.47.61q-.312.375-.75.656-.422.266-.922.453-.484.172-1.016.25-.516.094-1.016.094-.984 0-1.812-.328-.828-.328-1.437-.97-.594-.64-.937-1.578-.328-.937-.328-2.172 0-.984.297-1.844.313-.86.875-1.484.578-.625 1.39-.984.828-.36 1.86-.36zm.03 1.22q-1.203 0-1.89.703-.687.688-.86 1.922h5.14q0-.578-.172-1.062-.156-.484-.47-.828-.297-.36-.75-.547-.437-.187-1-.187zm5.995 8.375v-9.453h.984q.36 0 .453.344l.125 1.03q.625-.687 1.375-1.094.766-.422 1.766-.422.78 0 1.36.266.594.25.984.72.406.47.61 1.14.203.656.203 1.453V95.4h-1.656v-6.016q0-1.078-.5-1.672-.484-.594-1.484-.594-.734 0-1.375.36-.64.36-1.187.97V95.4h-1.656zm13.232.156q-1.11 0-1.72-.625-.594-.625-.594-1.812v-5.78h-1.14q-.156 0-.266-.078-.094-.094-.094-.28v-.656l1.547-.203.39-2.922q.016-.14.11-.22.11-.094.266-.094h.844v3.25h2.703v1.203h-2.703V93q0 .594.28.89.297.28.75.28.266 0 .453-.062.203-.078.328-.156.14-.078.234-.14.11-.078.188-.078.125 0 .234.156l.484.797q-.437.39-1.047.625-.594.234-1.25.234z" class="C"/><g class="B"><path d="M663.92 123.44H802.82v29.71l-5.942 5.942H663.92z" class="L"/><path d="M796.877 159.094l1.188-4.754 4.754-1.188z" class="M"/><path d="M796.877 159.094l1.188-4.754 4.754-1.188-5.942 5.942H663.92V123.44H802.82v29.71" class="C E"/></g><path d="M681.4 133.935q-.078.14-.172.22-.094.063-.25.063-.156 0-.375-.156-.203-.156-.53-.344-.312-.203-.766-.36-.453-.156-1.094-.156-.61 0-1.078.172-.47.156-.78.438-.312.28-.47.656-.156.375-.156.813 0 .563.266.938.28.36.734.625.453.266 1.03.453.578.188 1.172.39.61.203 1.172.47.578.25 1.03.64.453.39.72.97.28.563.28 1.39 0 .875-.297 1.656-.297.766-.875 1.344-.562.563-1.406.89-.828.328-1.89.328-1.297 0-2.375-.47-1.062-.484-1.812-1.28l.516-.86q.078-.11.188-.172.11-.078.234-.078.188 0 .438.22.266.203.64.47.375.25.906.453.547.203 1.313.203.64 0 1.14-.172.516-.172.86-.484.36-.328.547-.78.188-.453.188-1 0-.61-.28-.984-.28-.39-.734-.656-.437-.266-1.016-.437-.562-.187-1.172-.375-.594-.203-1.172-.453-.578-.25-1.03-.64-.437-.406-.72-1-.266-.61-.266-1.5 0-.703.266-1.36.28-.672.797-1.187.53-.516 1.297-.812.766-.312 1.766-.312 1.125 0 2.047.36.922.344 1.61 1.016l-.437.86zm6.528 1.688q.844 0 1.563.28.72.28 1.234.828.53.53.813 1.328.297.78.297 1.78 0 .39-.078.53-.078.125-.312.125h-6.297q.016.89.234 1.563.234.656.625 1.11.39.438.938.656.547.22 1.203.22.625 0 1.078-.14.453-.156.78-.312.328-.172.547-.312.22-.156.375-.156.22 0 .328.156l.47.61q-.312.375-.75.656-.422.266-.922.453-.484.172-1.016.25-.516.094-1.016.094-.984 0-1.812-.328-.828-.328-1.437-.97-.594-.64-.937-1.578-.328-.937-.328-2.172 0-.984.297-1.844.313-.86.875-1.484.578-.625 1.39-.984.828-.36 1.86-.36zm.03 1.22q-1.203 0-1.89.703-.687.688-.86 1.922h5.14q0-.578-.172-1.062-.156-.484-.47-.828-.297-.36-.75-.547-.437-.187-1-.187zm5.995 8.375v-9.453h.953q.266 0 .375.11.11.094.14.344l.11 1.484q.484-.984 1.188-1.547.72-.562 1.688-.562.39 0 .703.094.328.094.594.25l-.22 1.234q-.062.234-.28.234-.14 0-.406-.078-.266-.094-.75-.094-.875 0-1.453.5-.578.5-.984 1.47v6.016h-1.656zm6.33-9.453h1.36q.188 0 .313.11.14.094.203.234l2.39 6.094q.14.328.203.672.078.328.14.656.078-.328.156-.656.094-.344.22-.672l2.422-6.094q.063-.14.188-.234.125-.11.313-.11h1.297l-3.86 9.453h-1.5l-3.844-9.453zm12.583 0v9.453h-1.656v-9.453h1.656zm.375-2.97q0 .25-.094.47-.094.203-.266.375-.156.156-.375.25-.22.094-.453.094-.25 0-.47-.094-.203-.094-.36-.25-.156-.172-.25-.375-.094-.22-.094-.47 0-.234.094-.453.094-.22.25-.375.156-.172.36-.266.22-.094.47-.094.234 0 .453.094.22.094.375.266.172.156.266.375.094.22.094.453zm9 4.656q-.078.094-.156.156-.078.047-.22.047-.14 0-.297-.11-.156-.11-.422-.25-.25-.14-.61-.25-.36-.125-.875-.125-.687 0-1.22.25-.53.234-.89.703-.36.47-.547 1.14-.187.656-.187 1.47 0 .86.203 1.53.203.672.547 1.125.36.453.86.688.516.234 1.156.234.594 0 .984-.14.39-.156.656-.328.266-.172.422-.312.172-.156.344-.156.22 0 .313.156l.47.61q-.61.766-1.53 1.11-.922.344-1.953.344-.89 0-1.656-.312-.75-.328-1.312-.953-.562-.625-.89-1.53-.312-.906-.312-2.062 0-1.047.297-1.937.297-.906.86-1.547.563-.656 1.39-1.016.828-.36 1.906-.36.984 0 1.75.328.766.313 1.36.89l-.437.61zm6.01-1.828q.844 0 1.563.28.72.28 1.234.828.53.53.813 1.328.297.78.297 1.78 0 .39-.078.53-.078.125-.312.125h-6.297q.016.89.234 1.563.234.656.625 1.11.39.438.938.656.547.22 1.203.22.625 0 1.078-.14.453-.156.78-.312.328-.172.547-.312.22-.156.375-.156.22 0 .328.156l.47.61q-.312.375-.75.656-.422.266-.922.453-.484.172-1.016.25-.516.094-1.016.094-.984 0-1.812-.328-.828-.328-1.437-.97-.594-.64-.937-1.578-.328-.937-.328-2.172 0-.984.297-1.844.313-.86.875-1.484.578-.625 1.39-.984.828-.36 1.86-.36zm.03 1.22q-1.203 0-1.89.703-.687.688-.86 1.922h5.14q0-.578-.172-1.062-.156-.484-.47-.828-.297-.36-.75-.547-.437-.187-1-.187z" class="C"/><path d="M734.467 167.88v61.165" class="B C E"/><path d="M734.467 167.88v61.165" class="D F I K O"/><use xlink:href="#D" x="429.435" class="B J"/><use xlink:href="#D" x="429.435" class="D G I"/><use xlink:href="#E" x="776.572" fill="#666" class="B"/><use xlink:href="#E" x="776.572" class="D H K"/><path d="M642.247 13.087l181.26 232.22" class="B C E"/><path stroke="red" d="M642.247 13.087l181.26 232.22" class="D F H"/><path d="M825.097 13.722l-181.26 232.22" class="B C E"/><path stroke="red" d="M825.097 13.722l-181.26 232.22" class="D F H"/></g><defs ><path id="C" d="M211 354.053a17.83 17.83 0 0 1 17.827-17.827c4.728 0 9.262 1.878 12.605 5.22s5.22 7.878 5.22 12.605a17.83 17.83 0 0 1-17.827 17.827A17.83 17.83 0 0 1 211 354.053z"/><path id="D" d="M287.205 354.053a17.83 17.83 0 0 1 17.827-17.827c4.728 0 9.262 1.878 12.605 5.22s5.22 7.878 5.22 12.605a17.83 17.83 0 0 1-17.827 17.827 17.83 17.83 0 0 1-17.827-17.827z"/><path id="E" d="M72.184 462.163c0-12.55 10.174-22.724 22.724-22.724 6.027 0 11.807 2.394 16.07 6.656s6.656 10.042 6.656 16.07c0 12.55-10.174 22.724-22.724 22.724s-22.724-10.174-22.724-22.724z"/></defs></svg>