<svg xmlns="http://www.w3.org/2000/svg" xmlns:xlink="http://www.w3.org/1999/xlink" viewBox="0 0 960 540" fill="none" stroke="none" stroke-linecap="square" stroke-miterlimit="10"><style><![CDATA[.B{fill-rule:evenodd}.C{fill:#000}.D{fill-opacity:0}.E{stroke-linejoin:round}.F{stroke-linecap:butt}.G{stroke-width:4}.H{stroke:#6aa4c8}.I{stroke-width:8}.J{fill:#e9edee}.K{fill:#babdbe}.L{stroke-dasharray:16.0,12.0}.M{stroke-dasharray:4.0,12.0}]]></style><clipPath id="A"><path d="M0 0h960v540H0V0z"/></clipPath><g clip-path="url(#A)"><g class="B"><path fill="#fff" d="M0 0h960v540H0z"/><path d="M-1.577 462.163h963.276" class="C D"/></g><path stroke="#ccc" d="M-1.577 462.163h963.276" class="E F I"/><path d="M109.646 453.55c25.34 0 38.008-24.268 50.677-48.535s25.34-48.535 50.677-48.535" class="B C D"/><path d="M109.646 453.55c25.34 0 38.008-24.268 50.677-48.535s25.34-48.535 50.677-48.535" class="E F H I"/><use xlink:href="#C" fill="#fff" class="B"/><use xlink:href="#C" class="E G H"/><path d="M246.654 354.053h194.583" class="B C D"/><path d="M246.654 354.053h194.583" class="E F H I"/><use xlink:href="#D" fill="#fff" class="B"/><use xlink:href="#D" class="E G H"/><use xlink:href="#D" x="76.205" fill="#fff" class="B"/><use xlink:href="#D" x="76.205" class="E G H"/><path d="M476.9 354.053H629.3" class="B C D"/><path stroke-dasharray="32.0,24.0" d="M476.9 354.053H629.3" class="E F H I"/><path d="M459.063 336.226V232.383" class="B C D"/><path stroke="#d9d9d9" d="M459.063 336.226V232.383" class="E F G L"/><path d="M94.908 439.438V232.383" class="B C D"/><path stroke="#d9d9d9" d="M94.908 439.438V232.383" class="E F G L"/><use xlink:href="#D" x="154.031" fill="#fff" class="B"/><use xlink:href="#D" x="154.031" class="E G H"/><use xlink:href="#E" fill="#666" class="B"/><use xlink:href="#E" stroke="#666" class="E I"/><g class="B"><path fill="#cfe2f3" d="M14.75 31.514h160.315v200.882H14.75z"/><path d="M14.75 31.514h160.315v42.1H14.75z" class="C D"/></g><path d="M28.126 47.64q.734 0 1.344.25.61.234 1.063.703.453.453.703 1.14.25.672.25 1.53 0 .344-.078.453-.062.11-.266.11h-5.39q.016.766.203 1.344.203.563.53.938.344.375.797.563.47.188 1.047.188.53 0 .922-.11.39-.125.672-.266.28-.156.47-.28.188-.125.313-.125.188 0 .28.14l.39.516q-.25.328-.625.563-.375.234-.797.39-.406.14-.86.22-.453.078-.89.078-.844 0-1.547-.28-.703-.28-1.22-.828-.516-.547-.812-1.36-.28-.812-.28-1.86 0-.844.25-1.578.266-.734.75-1.266.5-.547 1.203-.86.703-.312 1.578-.312zm.03 1.047q-1.03 0-1.625.61-.594.594-.734 1.64h4.406q0-.5-.14-.906-.125-.406-.39-.703-.266-.312-.656-.47-.375-.172-.86-.172zm6.56 3.03l-2.72-3.953h1.36q.172 0 .25.063.094.063.156.156l1.984 3.047q.063-.234.203-.453l1.75-2.562q.078-.11.156-.172.078-.078.203-.078h1.313L36.64 51.64l2.844 4.234h-1.375q-.172 0-.28-.094-.094-.094-.156-.203l-2.047-3.172q-.047.234-.156.406l-1.89 2.766q-.078.11-.172.203-.094.094-.25.094h-1.28l2.844-4.156zm12.126 4.156h-.64q-.203 0-.328-.062-.125-.062-.172-.28l-.156-.75q-.328.297-.64.53-.297.22-.64.375-.328.156-.703.234-.375.078-.844.078-.47 0-.89-.125-.406-.14-.72-.39-.297-.266-.484-.672-.172-.406-.172-.97 0-.47.266-.906.266-.453.844-.797.594-.344 1.547-.562.953-.22 2.328-.25v-.64q0-.937-.406-1.422-.406-.484-1.187-.484-.53 0-.89.14-.344.125-.61.297-.25.156-.453.297-.187.125-.36.125-.156 0-.266-.078-.094-.078-.156-.187l-.266-.453q.672-.656 1.453-.97.78-.328 1.72-.328.672 0 1.203.234.53.22.89.625.36.39.547.97.188.563.188 1.234v5.188zM43.14 55q.375 0 .688-.078.313-.078.578-.203.28-.14.53-.344.266-.203.5-.453v-1.687q-.984.03-1.672.156-.687.11-1.125.313-.422.203-.625.484-.187.266-.187.594 0 .328.094.563.11.234.28.375.172.14.406.22.25.063.53.063zm5.862.875v-8.11h.844q.297 0 .39.297l.094.844q.453-.562 1-.906.563-.36 1.297-.36.828 0 1.328.47.516.453.734 1.22.172-.437.438-.75.28-.328.625-.53.344-.22.734-.312.39-.094.797-.094.64 0 1.14.203.5.203.844.594.344.39.53.97.188.578.188 1.313v5.156h-1.422v-5.156q0-.953-.422-1.437-.422-.5-1.203-.5-.36 0-.672.125-.312.125-.562.36-.234.234-.375.61-.14.36-.14.844v5.156h-1.422v-5.156q0-.984-.39-1.453-.39-.484-1.14-.484-.53 0-.984.28-.453.28-.828.766v6.047h-1.422zm13.136 2.75v-10.86h.844q.297 0 .39.297l.11.97q.53-.64 1.187-1.016.672-.39 1.547-.39.688 0 1.25.266.578.266.97.797.406.53.625 1.313.22.766.22 1.766 0 .906-.25 1.688-.234.766-.687 1.328-.437.563-1.094.89-.656.313-1.47.313-.75 0-1.28-.25-.53-.25-.937-.703v3.594h-1.422zm3.61-9.844q-.703 0-1.234.328-.516.313-.953.89v3.922q.39.53.86.75.47.22 1.047.22 1.125 0 1.734-.812.61-.812.61-2.312 0-.78-.14-1.344-.14-.578-.406-.937-.266-.375-.656-.53-.375-.172-.86-.172zm6.8-4.687v11.78h-1.422v-11.78h1.422zm5.72 3.547q.734 0 1.344.25.61.234 1.063.703.453.453.703 1.14.25.672.25 1.53 0 .344-.078.453-.062.11-.266.11h-5.39q.016.766.203 1.344.203.563.53.938.344.375.797.563.47.188 1.047.188.53 0 .922-.11.39-.125.672-.266.28-.156.47-.28.188-.125.313-.125.188 0 .28.14l.39.516q-.25.328-.625.563-.375.234-.797.39-.406.14-.86.22-.453.078-.89.078-.844 0-1.547-.28-.703-.28-1.22-.828-.516-.547-.812-1.36-.28-.812-.28-1.86 0-.844.25-1.578.266-.734.75-1.266.5-.547 1.203-.86.703-.312 1.578-.312zm.03 1.047q-1.03 0-1.625.61-.594.594-.734 1.64h4.406q0-.5-.14-.906-.125-.406-.39-.703-.266-.312-.656-.47-.375-.172-.86-.172zM82.98 55q0-.22.078-.39.078-.187.203-.328.14-.14.313-.22.188-.078.406-.078.203 0 .375.078.188.078.328.22.14.14.22.328.078.172.078.39 0 .22-.078.406-.078.172-.22.313-.14.125-.328.203-.172.078-.375.078-.22 0-.406-.078-.172-.078-.312-.203-.125-.14-.203-.312-.078-.187-.078-.406zm9.564.875q-.312 0-.39-.297l-.125-.984q-.516.64-1.187 1.016-.672.375-1.53.375-.703 0-1.266-.266-.562-.266-.97-.78-.39-.53-.61-1.297-.22-.78-.22-1.797 0-.89.234-1.656.25-.78.688-1.344.453-.562 1.094-.89.656-.328 1.484-.328.75 0 1.266.25.53.25.953.72v-4.5h1.422v11.78h-.844zm-2.766-1.047q.703 0 1.22-.312.53-.328.97-.906v-3.922q-.39-.53-.86-.734-.47-.22-1.03-.22-1.14 0-1.75.813-.61.813-.61 2.297 0 .797.125 1.36.14.563.406.938.266.36.64.53.39.156.89.156zm9.2-7.187q.734 0 1.344.25.61.234 1.063.703.453.453.703 1.14.25.672.25 1.53 0 .344-.078.453-.062.11-.266.11h-5.39q.016.766.203 1.344.203.563.53.938.344.375.797.563.47.188 1.047.188.53 0 .922-.11.39-.125.672-.266.28-.156.47-.28.188-.125.313-.125.188 0 .28.14l.39.516q-.25.328-.625.563-.375.234-.797.39-.406.14-.86.22-.453.078-.89.078-.844 0-1.547-.28-.703-.28-1.22-.828-.516-.547-.812-1.36-.28-.812-.28-1.86 0-.844.25-1.578.266-.734.75-1.266.5-.547 1.203-.86.703-.312 1.578-.312zm.03 1.047q-1.03 0-1.625.61-.594.594-.734 1.64h4.406q0-.5-.14-.906-.125-.406-.39-.703-.266-.312-.656-.47-.375-.172-.86-.172zm3.9-.922h1.172q.172 0 .28.094.11.094.156.203l2.063 5.22q.11.297.172.578.063.28.125.563.063-.28.125-.562.078-.28.188-.578l2.078-5.22q.047-.125.156-.203.11-.094.266-.094h1.125l-3.312 8.11h-1.28l-3.312-8.11z" class="C"/><g class="B"><path d="M24.362 73.625H163.26v29.71l-5.942 5.942H24.362z" class="J"/><path d="M157.317 109.278l1.188-4.754 4.754-1.188z" class="K"/><path d="M157.317 109.278l1.188-4.754 4.754-1.188-5.942 5.942H24.362V73.625H163.26v29.71" class="C D"/></g><path d="M46.565 88.728q0 1.5-.484 2.734-.47 1.22-1.344 2.11-.86.875-2.078 1.36-1.203.47-2.672.47h-5V82.025h5q1.47 0 2.672.484 1.22.484 2.078 1.375.875.875 1.344 2.11.484 1.22.484 2.734zm-1.844 0q0-1.234-.344-2.203-.328-.97-.953-1.64-.61-.672-1.484-1.03-.875-.36-1.953-.36H36.8v10.438h3.188q1.078 0 1.953-.344.875-.36 1.484-1.016.625-.672.953-1.64.344-.984.344-2.203zm7.798-2.922q.844 0 1.563.28.72.28 1.234.828.53.53.813 1.328.297.78.297 1.78 0 .39-.078.53-.078.125-.312.125h-6.297q.016.89.234 1.563.234.656.625 1.11.39.438.938.656.547.22 1.203.22.625 0 1.078-.14.453-.156.78-.312.328-.172.547-.312.22-.156.375-.156.22 0 .328.156l.47.61q-.312.375-.75.656-.422.266-.922.453-.484.172-1.016.25-.516.094-1.016.094-.984 0-1.812-.328-.828-.328-1.437-.97-.594-.64-.937-1.578-.328-.937-.328-2.172 0-.984.297-1.844.313-.86.875-1.484.578-.625 1.39-.984.828-.36 1.86-.36zm.03 1.22q-1.203 0-1.89.703-.687.688-.86 1.922h5.14q0-.578-.172-1.062-.156-.484-.47-.828-.297-.36-.75-.547-.437-.187-1-.187zm5.995 11.578V85.947h.984q.36 0 .453.344l.14 1.125q.61-.734 1.39-1.187.78-.453 1.797-.453.813 0 1.47.313.656.313 1.125.938.47.61.72 1.516.25.906.25 2.078 0 1.047-.28 1.953-.28.89-.797 1.547-.516.656-1.28 1.03-.766.375-1.72.375-.875 0-1.5-.28-.61-.297-1.094-.828v4.188h-1.656zM62.75 87.12q-.812 0-1.422.375-.61.375-1.125 1.063v4.563q.47.625 1.016.875.547.25 1.22.25 1.313 0 2.016-.937.703-.953.703-2.687 0-.922-.156-1.578-.156-.672-.47-1.094-.312-.422-.766-.625-.437-.203-1.016-.203zm7.94-5.453V95.4H69.03V81.666h1.656zm6.76 4.14q1.03 0 1.86.344.844.344 1.422.984.594.625.906 1.53.313.89.313 2 0 1.125-.312 2.03-.312.89-.906 1.53-.578.625-1.422.97-.828.328-1.86.328-1.03 0-1.875-.328-.828-.344-1.422-.97-.578-.64-.906-1.53-.312-.906-.312-2.03 0-1.11.313-2 .328-.906.906-1.53.594-.64 1.422-.984.844-.344 1.875-.344zm0 8.422q1.39 0 2.078-.937.703-.937.703-2.61 0-1.687-.703-2.625-.687-.953-2.078-.953-.703 0-1.234.25-.516.234-.875.703-.344.453-.516 1.125-.172.656-.172 1.5 0 .844.172 1.5.172.656.516 1.11.36.453.875.703.53.234 1.234.234zm9.068 3.97q-.078.172-.203.28-.125.125-.39.125h-1.234l1.734-3.75-3.906-8.906h1.438q.22 0 .344.11.125.11.172.234L87 92.244q.078.203.14.422.063.203.11.406.063-.203.125-.406.078-.22.156-.422l2.453-5.953q.063-.14.188-.234.14-.11.297-.11h1.328l-5.28 12.25zm6.786-2.797v-9.453h.984q.36 0 .453.344l.125.97q.516-.64 1.156-1.047.656-.406 1.516-.406.97 0 1.563.53.594.53.844 1.438.203-.516.516-.89.328-.375.72-.61.406-.25.86-.36.453-.11.922-.11.75 0 1.328.234.578.234.984.703.406.453.625 1.125.22.656.22 1.516V95.4h-1.656v-6.016q0-1.11-.5-1.687-.484-.578-1.406-.578-.406 0-.78.156-.36.14-.64.422-.28.28-.453.703-.156.422-.156.984V95.4h-1.656v-6.016q0-1.14-.47-1.703-.453-.562-1.328-.562-.61 0-1.14.344-.53.328-.97.89V95.4h-1.656zm19.067-9.594q.844 0 1.563.28.72.28 1.234.828.53.53.813 1.328.297.78.297 1.78 0 .39-.078.53-.078.125-.312.125h-6.297q.016.89.234 1.563.234.656.625 1.11.39.438.938.656.547.22 1.203.22.625 0 1.078-.14.453-.156.78-.312.328-.172.547-.312.22-.156.375-.156.22 0 .328.156l.47.61q-.312.375-.75.656-.422.266-.922.453-.484.172-1.016.25-.516.094-1.016.094-.984 0-1.812-.328-.828-.328-1.437-.97-.594-.64-.937-1.578-.328-.937-.328-2.172 0-.984.297-1.844.313-.86.875-1.484.578-.625 1.39-.984.828-.36 1.86-.36zm.03 1.22q-1.203 0-1.89.703-.687.688-.86 1.922h5.14q0-.578-.172-1.062-.156-.484-.47-.828-.297-.36-.75-.547-.437-.187-1-.187zm5.995 8.375v-9.453h.984q.36 0 .453.344l.125 1.03q.625-.687 1.375-1.094.766-.422 1.766-.422.78 0 1.36.266.594.25.984.72.406.47.61 1.14.203.656.203 1.453V95.4h-1.656v-6.016q0-1.078-.5-1.672-.484-.594-1.484-.594-.734 0-1.375.36-.64.36-1.187.97V95.4h-1.656zm13.232.156q-1.11 0-1.72-.625-.594-.625-.594-1.812v-5.78h-1.14q-.156 0-.266-.078-.094-.094-.094-.28v-.656l1.547-.203.39-2.922q.016-.14.11-.22.11-.094.266-.094h.844v3.25h2.703v1.203h-2.703V93q0 .594.28.89.297.28.75.28.266 0 .453-.062.203-.078.328-.156.14-.078.234-.14.11-.078.188-.078.125 0 .234.156l.484.797q-.437.39-1.047.625-.594.234-1.25.234z" class="C"/><g class="B"><path d="M24.362 123.44H163.26v29.71l-5.942 5.942H24.362z" class="J"/><path d="M157.317 159.094l1.188-4.754 4.754-1.188z" class="K"/><path d="M157.317 159.094l1.188-4.754 4.754-1.188-5.942 5.942H24.362V123.44H163.26v29.71" class="C D"/></g><path d="M41.83 133.935q-.078.14-.172.22-.094.063-.25.063-.156 0-.375-.156-.203-.156-.53-.344-.312-.203-.766-.36-.453-.156-1.094-.156-.61 0-1.078.172-.47.156-.78.438-.312.28-.47.656-.156.375-.156.813 0 .563.266.938.28.36.734.625.453.266 1.03.453.578.188 1.172.39.61.203 1.172.47.578.25 1.03.64.453.39.72.97.28.563.28 1.39 0 .875-.297 1.656-.297.766-.875 1.344-.562.563-1.406.89-.828.328-1.89.328-1.297 0-2.375-.47-1.062-.484-1.812-1.28l.516-.86q.078-.11.188-.172.11-.078.234-.078.188 0 .438.22.266.203.64.47.375.25.906.453.547.203 1.313.203.64 0 1.14-.172.516-.172.86-.484.36-.328.547-.78.188-.453.188-1 0-.61-.28-.984-.28-.39-.734-.656-.437-.266-1.016-.437-.562-.187-1.172-.375-.594-.203-1.172-.453-.578-.25-1.03-.64-.437-.406-.72-1-.266-.61-.266-1.5 0-.703.266-1.36.28-.672.797-1.187.53-.516 1.297-.812.766-.312 1.766-.312 1.125 0 2.047.36.922.344 1.61 1.016l-.437.86zm6.528 1.688q.844 0 1.563.28.72.28 1.234.828.53.53.813 1.328.297.78.297 1.78 0 .39-.078.53-.078.125-.312.125h-6.297q.016.89.234 1.563.234.656.625 1.11.39.438.938.656.547.22 1.203.22.625 0 1.078-.14.453-.156.78-.312.328-.172.547-.312.22-.156.375-.156.22 0 .328.156l.47.61q-.312.375-.75.656-.422.266-.922.453-.484.172-1.016.25-.516.094-1.016.094-.984 0-1.812-.328-.828-.328-1.437-.97-.594-.64-.937-1.578-.328-.937-.328-2.172 0-.984.297-1.844.313-.86.875-1.484.578-.625 1.39-.984.828-.36 1.86-.36zm.03 1.22q-1.203 0-1.89.703-.687.688-.86 1.922h5.14q0-.578-.172-1.062-.156-.484-.47-.828-.297-.36-.75-.547-.437-.187-1-.187zm5.995 8.375v-9.453h.953q.266 0 .375.11.11.094.14.344l.11 1.484q.484-.984 1.188-1.547.72-.562 1.688-.562.39 0 .703.094.328.094.594.25l-.22 1.234q-.062.234-.28.234-.14 0-.406-.078-.266-.094-.75-.094-.875 0-1.453.5-.578.5-.984 1.47v6.016h-1.656zm6.33-9.453h1.36q.188 0 .313.11.14.094.203.234l2.39 6.094q.14.328.203.672.078.328.14.656.078-.328.156-.656.094-.344.22-.672l2.422-6.094q.063-.14.188-.234.125-.11.313-.11h1.297l-3.86 9.453h-1.5l-3.844-9.453zm12.583 0v9.453h-1.656v-9.453H73.3zm.375-2.97q0 .25-.094.47-.094.203-.266.375-.156.156-.375.25-.22.094-.453.094-.25 0-.47-.094-.203-.094-.36-.25-.156-.172-.25-.375-.094-.22-.094-.47 0-.234.094-.453.094-.22.25-.375.156-.172.36-.266.22-.094.47-.094.234 0 .453.094.22.094.375.266.172.156.266.375.094.22.094.453zm9 4.656q-.078.094-.156.156-.078.047-.22.047-.14 0-.297-.11-.156-.11-.422-.25-.25-.14-.61-.25-.36-.125-.875-.125-.687 0-1.22.25-.53.234-.89.703-.36.47-.547 1.14-.187.656-.187 1.47 0 .86.203 1.53.203.672.547 1.125.36.453.86.688.516.234 1.156.234.594 0 .984-.14.39-.156.656-.328.266-.172.422-.312.172-.156.344-.156.22 0 .313.156l.47.61q-.61.766-1.53 1.11-.922.344-1.953.344-.89 0-1.656-.312-.75-.328-1.312-.953-.562-.625-.89-1.53-.312-.906-.312-2.062 0-1.047.297-1.937.297-.906.86-1.547.563-.656 1.39-1.016.828-.36 1.906-.36.984 0 1.75.328.766.313 1.36.89l-.437.61zm6.01-1.828q.844 0 1.563.28.72.28 1.234.828.53.53.813 1.328.297.78.297 1.78 0 .39-.078.53-.078.125-.312.125h-6.297q.016.89.234 1.563.234.656.625 1.11.39.438.938.656.547.22 1.203.22.625 0 1.078-.14.453-.156.78-.312.328-.172.547-.312.22-.156.375-.156.22 0 .328.156l.47.61q-.312.375-.75.656-.422.266-.922.453-.484.172-1.016.25-.516.094-1.016.094-.984 0-1.812-.328-.828-.328-1.437-.97-.594-.64-.937-1.578-.328-.937-.328-2.172 0-.984.297-1.844.313-.86.875-1.484.578-.625 1.39-.984.828-.36 1.86-.36zm.03 1.22q-1.203 0-1.89.703-.687.688-.86 1.922h5.14q0-.578-.172-1.062-.156-.484-.47-.828-.297-.36-.75-.547-.437-.187-1-.187z" class="C"/><path d="M94.908 167.88v61.165" class="B C D"/><path stroke="#666" d="M94.908 167.88v61.165" class="E F G M"/><g class="B"><path fill="#cfe2f3" d="M378.906 31.514H539.22v200.882H378.906z"/><path d="M378.906 31.514H539.22v42.1H378.906z" class="C D"/></g><path d="M389.077 58.624v-10.86h.844q.297 0 .39.297l.11.97q.53-.64 1.188-1.016.672-.39 1.547-.39.688 0 1.25.266.578.266.97.797.406.53.625 1.313.22.766.22 1.766 0 .906-.25 1.688-.234.766-.687 1.328-.437.563-1.094.89-.656.313-1.47.313-.75 0-1.28-.25-.53-.25-.937-.703v3.594h-1.422zm3.61-9.844q-.703 0-1.234.328-.516.313-.953.89v3.922q.39.53.86.75.47.22 1.047.22 1.125 0 1.734-.812.61-.812.61-2.312 0-.78-.14-1.344-.14-.578-.406-.937-.266-.375-.656-.53-.375-.172-.86-.172zm5.223 7.094v-8.11h.813q.234 0 .313.094.094.094.125.297l.094 1.266q.422-.844 1.03-1.312.61-.484 1.438-.484.328 0 .594.078.28.078.516.22l-.187 1.063q-.047.188-.25.188-.11 0-.344-.062-.22-.078-.64-.078-.75 0-1.25.438-.5.422-.828 1.25v5.156h-1.422zm7.573-1.094h2.47v-7.812q0-.344.016-.703l-2.047 1.75q-.078.063-.156.094-.078.016-.156.016-.125 0-.22-.047-.094-.047-.14-.125l-.453-.61 3.422-2.953h1.156v10.39h2.25v1.094h-6.14V54.78zm7.686.22q0-.22.078-.39.078-.187.203-.328.14-.14.313-.22.188-.078.406-.078.203 0 .375.078.188.078.328.22.14.14.22.328.078.172.078.39 0 .22-.078.406-.078.172-.22.313-.14.125-.328.203-.172.078-.375.078-.22 0-.406-.078-.172-.078-.312-.203-.125-.14-.203-.312-.078-.187-.078-.406zm7.064-7.36q.734 0 1.344.25.61.234 1.063.703.453.453.703 1.14.25.672.25 1.53 0 .344-.078.453-.062.11-.266.11h-5.39q.016.766.203 1.344.203.563.53.938.344.375.797.563.47.188 1.047.188.53 0 .922-.11.39-.125.672-.266.28-.156.47-.28.188-.125.313-.125.188 0 .28.14l.39.516q-.25.328-.625.563-.375.234-.797.39-.406.14-.86.22-.453.078-.89.078-.844 0-1.547-.28-.703-.28-1.22-.828-.516-.547-.812-1.36-.28-.812-.28-1.86 0-.844.25-1.578.266-.734.75-1.266.5-.547 1.203-.86.703-.312 1.578-.312zm.03 1.047q-1.03 0-1.625.61-.594.594-.734 1.64h4.406q0-.5-.14-.906-.125-.406-.39-.703-.266-.312-.656-.47-.375-.172-.86-.172zm6.56 3.03l-2.72-3.953h1.36q.172 0 .25.063.094.063.156.156l1.984 3.047q.063-.234.203-.453l1.75-2.562q.078-.11.156-.172.078-.078.203-.078h1.313l-2.734 3.875 2.844 4.234h-1.375q-.172 0-.28-.094-.094-.094-.156-.203l-2.047-3.172q-.047.234-.156.406l-1.89 2.766q-.078.11-.172.203-.094.094-.25.094h-1.28l2.844-4.156zm12.126 4.156h-.64q-.203 0-.328-.062-.125-.062-.172-.28l-.156-.75q-.328.297-.64.53-.297.22-.64.375-.328.156-.703.234-.375.078-.844.078-.47 0-.89-.125-.406-.14-.72-.39-.297-.266-.484-.672-.172-.406-.172-.97 0-.47.266-.906.266-.453.844-.797.594-.344 1.547-.562.953-.22 2.328-.25v-.64q0-.937-.406-1.422-.406-.484-1.187-.484-.53 0-.89.14-.344.125-.61.297-.25.156-.453.297-.187.125-.36.125-.156 0-.266-.078-.094-.078-.156-.187l-.266-.453q.672-.656 1.453-.97.78-.328 1.72-.328.672 0 1.203.234.53.22.89.625.36.39.547.97.188.563.188 1.234v5.188zM435.247 55q.375 0 .688-.078.313-.078.578-.203.28-.14.53-.344.266-.203.5-.453v-1.687q-.984.03-1.672.156-.687.11-1.125.313-.422.203-.625.484-.187.266-.187.594 0 .328.094.563.11.234.28.375.172.14.406.22.25.063.53.063zm5.862.875v-8.11h.844q.297 0 .39.297l.094.844q.453-.562 1-.906.563-.36 1.297-.36.828 0 1.328.47.516.453.734 1.22.172-.437.438-.75.28-.328.625-.53.344-.22.734-.312.39-.094.797-.094.64 0 1.14.203.5.203.844.594.344.39.53.97.188.578.188 1.313v5.156h-1.422v-5.156q0-.953-.422-1.437-.422-.5-1.203-.5-.36 0-.672.125-.312.125-.562.36-.234.234-.375.61-.14.36-.14.844v5.156h-1.422v-5.156q0-.984-.39-1.453-.39-.484-1.14-.484-.53 0-.984.28-.453.28-.828.766v6.047h-1.422zm13.136 2.75v-10.86h.844q.297 0 .39.297l.11.97q.53-.64 1.188-1.016.672-.39 1.547-.39.688 0 1.25.266.578.266.97.797.406.53.625 1.313.22.766.22 1.766 0 .906-.25 1.688-.234.766-.687 1.328-.437.563-1.094.89-.656.313-1.47.313-.75 0-1.28-.25-.53-.25-.937-.703v3.594h-1.422zm3.61-9.844q-.703 0-1.234.328-.516.313-.953.89v3.922q.39.53.86.75.47.22 1.047.22 1.125 0 1.734-.812.61-.812.61-2.312 0-.78-.14-1.344-.14-.578-.406-.937-.266-.375-.656-.53-.375-.172-.86-.172zm6.8-4.687v11.78h-1.422v-11.78h1.422zm5.72 3.547q.734 0 1.344.25.61.234 1.063.703.453.453.703 1.14.25.672.25 1.53 0 .344-.078.453-.062.11-.266.11H468q.016.766.203 1.344.203.563.53.938.344.375.797.563.47.188 1.047.188.53 0 .922-.11.39-.125.672-.266.28-.156.47-.28.188-.125.313-.125.188 0 .28.14l.39.516q-.25.328-.625.563-.375.234-.797.39-.406.14-.86.22-.453.078-.89.078-.844 0-1.547-.28-.703-.28-1.22-.828-.516-.547-.812-1.36-.28-.812-.28-1.86 0-.844.25-1.578.266-.734.75-1.266.5-.547 1.203-.86.703-.312 1.578-.312zm.03 1.047q-1.03 0-1.625.61-.594.594-.734 1.64h4.406q0-.5-.14-.906-.125-.406-.39-.703-.266-.312-.656-.47-.375-.172-.86-.172zm4.68 6.313q0-.22.078-.39.078-.187.203-.328.14-.14.313-.22.188-.078.406-.078.203 0 .375.078.188.078.328.22.14.14.22.328.078.172.078.39 0 .22-.078.406-.078.172-.22.313-.14.125-.328.203-.172.078-.375.078-.22 0-.406-.078-.172-.078-.312-.203-.125-.14-.203-.312-.078-.187-.078-.406zm9.564.875q-.312 0-.39-.297l-.125-.984q-.516.64-1.187 1.016-.672.375-1.53.375-.703 0-1.266-.266-.562-.266-.97-.78-.39-.53-.61-1.297-.22-.78-.22-1.797 0-.89.234-1.656.25-.78.688-1.344.453-.562 1.094-.89.656-.328 1.484-.328.75 0 1.266.25.53.25.953.72v-4.5h1.422v11.78h-.844zm-2.766-1.047q.703 0 1.22-.312.53-.328.97-.906v-3.922q-.39-.53-.86-.734-.47-.22-1.03-.22-1.14 0-1.75.813-.61.813-.61 2.297 0 .797.125 1.36.14.563.406.938.266.36.64.53.39.156.89.156zm9.2-7.187q.734 0 1.344.25.61.234 1.063.703.453.453.703 1.14.25.672.25 1.53 0 .344-.078.453-.062.11-.266.11h-5.39q.016.766.203 1.344.203.563.53.938.344.375.797.563.47.188 1.047.188.53 0 .922-.11.39-.125.672-.266.28-.156.47-.28.188-.125.313-.125.188 0 .28.14l.39.516q-.25.328-.625.563-.375.234-.797.39-.406.14-.86.22-.453.078-.89.078-.844 0-1.547-.28-.703-.28-1.22-.828-.516-.547-.812-1.36-.28-.812-.28-1.86 0-.844.25-1.578.266-.734.75-1.266.5-.547 1.203-.86.703-.312 1.578-.312zm.03 1.047q-1.03 0-1.625.61-.594.594-.734 1.64h4.406q0-.5-.14-.906-.125-.406-.39-.703-.266-.312-.656-.47-.375-.172-.86-.172zm3.9-.922h1.172q.172 0 .28.094.11.094.156.203l2.063 5.22q.11.297.172.578.063.28.125.563.063-.28.125-.562.078-.28.188-.578l2.078-5.22q.047-.125.156-.203.11-.094.266-.094h1.125l-3.312 8.11h-1.28l-3.312-8.11z" class="C"/><g class="B"><path d="M388.517 73.625h138.898v29.71l-5.942 5.942H388.517z" class="J"/><path d="M521.472 109.278l1.188-4.754 4.754-1.188z" class="K"/><path d="M521.472 109.278l1.188-4.754 4.754-1.188-5.942 5.942H388.517V73.625h138.898v29.71" class="C D"/></g><path d="M410.72 88.728q0 1.5-.484 2.734-.47 1.22-1.344 2.11-.86.875-2.078 1.36-1.203.47-2.672.47h-5V82.025h5q1.47 0 2.672.484 1.22.484 2.078 1.375.875.875 1.344 2.11.484 1.22.484 2.734zm-1.844 0q0-1.234-.344-2.203-.328-.97-.953-1.64-.61-.672-1.484-1.03-.875-.36-1.953-.36h-3.187v10.438h3.188q1.078 0 1.953-.344.875-.36 1.484-1.016.625-.672.953-1.64.344-.984.344-2.203zm7.798-2.922q.844 0 1.563.28.72.28 1.234.828.53.53.813 1.328.297.78.297 1.78 0 .39-.078.53-.078.125-.312.125h-6.297q.016.89.234 1.563.234.656.625 1.11.39.438.938.656.547.22 1.203.22.625 0 1.078-.14.453-.156.78-.312.328-.172.547-.312.22-.156.375-.156.22 0 .328.156l.47.61q-.312.375-.75.656-.422.266-.922.453-.484.172-1.016.25-.516.094-1.016.094-.984 0-1.812-.328-.828-.328-1.437-.97-.594-.64-.937-1.578-.328-.937-.328-2.172 0-.984.297-1.844.313-.86.875-1.484.578-.625 1.39-.984.828-.36 1.86-.36zm.03 1.22q-1.203 0-1.89.703-.687.688-.86 1.922h5.14q0-.578-.172-1.062-.156-.484-.47-.828-.297-.36-.75-.547-.437-.187-1-.187zm5.995 11.578V85.947h.984q.36 0 .453.344l.14 1.125q.61-.734 1.39-1.187.78-.453 1.797-.453.813 0 1.47.313.656.313 1.125.938.47.61.72 1.516.25.906.25 2.078 0 1.047-.28 1.953-.28.89-.797 1.547-.516.656-1.28 1.03-.766.375-1.72.375-.875 0-1.5-.28-.61-.297-1.094-.828v4.188H422.7zm4.203-11.484q-.812 0-1.422.375-.61.375-1.125 1.063v4.563q.47.625 1.016.875.547.25 1.22.25 1.313 0 2.016-.937.703-.953.703-2.687 0-.922-.156-1.578-.156-.672-.47-1.094-.312-.422-.766-.625-.437-.203-1.016-.203zm7.94-5.453V95.4h-1.656V81.666h1.656zm6.76 4.14q1.03 0 1.86.344.844.344 1.422.984.594.625.906 1.53.313.89.313 2 0 1.125-.312 2.03-.312.89-.906 1.53-.578.625-1.422.97-.828.328-1.86.328-1.03 0-1.875-.328-.828-.344-1.422-.97-.578-.64-.906-1.53-.312-.906-.312-2.03 0-1.11.313-2 .328-.906.906-1.53.594-.64 1.422-.984.844-.344 1.875-.344zm0 8.422q1.39 0 2.078-.937.703-.937.703-2.61 0-1.687-.703-2.625-.687-.953-2.078-.953-.703 0-1.234.25-.516.234-.875.703-.344.453-.516 1.125-.172.656-.172 1.5 0 .844.172 1.5.172.656.516 1.11.36.453.875.703.53.234 1.234.234zm9.068 3.97q-.078.172-.203.28-.125.125-.39.125h-1.234l1.734-3.75-3.906-8.906h1.438q.22 0 .344.11.125.11.172.234l2.53 5.953q.078.203.14.422.063.203.11.406.063-.203.125-.406.078-.22.156-.422l2.453-5.953q.063-.14.188-.234.14-.11.297-.11h1.328l-5.28 12.25zm6.786-2.797v-9.453h.984q.36 0 .453.344l.125.97q.516-.64 1.156-1.047.656-.406 1.516-.406.97 0 1.563.53.594.53.844 1.438.203-.516.516-.89.328-.375.72-.61.406-.25.86-.36.453-.11.922-.11.75 0 1.328.234.578.234.984.703.406.453.625 1.125.22.656.22 1.516V95.4h-1.656v-6.016q0-1.11-.5-1.687-.484-.578-1.406-.578-.406 0-.78.156-.36.14-.64.422-.28.28-.453.703-.156.422-.156.984V95.4h-1.656v-6.016q0-1.14-.47-1.703-.453-.562-1.328-.562-.61 0-1.14.344-.53.328-.97.89V95.4h-1.656zm19.067-9.594q.844 0 1.563.28.72.28 1.234.828.53.53.813 1.328.297.78.297 1.78 0 .39-.078.53-.078.125-.312.125h-6.297q.016.89.234 1.563.234.656.625 1.11.39.438.938.656.547.22 1.203.22.625 0 1.078-.14.453-.156.78-.312.328-.172.547-.312.22-.156.375-.156.22 0 .328.156l.47.61q-.312.375-.75.656-.422.266-.922.453-.484.172-1.016.25-.516.094-1.016.094-.984 0-1.812-.328-.828-.328-1.437-.97-.594-.64-.937-1.578-.328-.937-.328-2.172 0-.984.297-1.844.313-.86.875-1.484.578-.625 1.39-.984.828-.36 1.86-.36zm.03 1.22q-1.203 0-1.89.703-.687.688-.86 1.922h5.14q0-.578-.172-1.062-.156-.484-.47-.828-.297-.36-.75-.547-.437-.187-1-.187zm5.995 8.375v-9.453h.984q.36 0 .453.344l.125 1.03q.625-.687 1.375-1.094.766-.422 1.766-.422.78 0 1.36.266.594.25.984.72.406.47.61 1.14.203.656.203 1.453V95.4h-1.656v-6.016q0-1.078-.5-1.672-.484-.594-1.484-.594-.734 0-1.375.36-.64.36-1.187.97V95.4h-1.656zm13.232.156q-1.11 0-1.72-.625-.594-.625-.594-1.812v-5.78h-1.14q-.156 0-.266-.078-.094-.094-.094-.28v-.656l1.547-.203.39-2.922q.016-.14.11-.22.11-.094.266-.094h.844v3.25h2.703v1.203h-2.703V93q0 .594.28.89.297.28.75.28.266 0 .453-.062.203-.078.328-.156.14-.078.234-.14.11-.078.188-.078.125 0 .234.156l.484.797q-.437.39-1.047.625-.594.234-1.25.234z" class="C"/><g class="B"><path d="M388.517 123.44h138.898v29.71l-5.942 5.942H388.517z" class="J"/><path d="M521.472 159.094l1.188-4.754 4.754-1.188z" class="K"/><path d="M521.472 159.094l1.188-4.754 4.754-1.188-5.942 5.942H388.517V123.44h138.898v29.71" class="C D"/></g><path d="M405.986 133.935q-.078.14-.172.22-.094.063-.25.063-.156 0-.375-.156-.203-.156-.53-.344-.312-.203-.766-.36-.453-.156-1.094-.156-.61 0-1.078.172-.47.156-.78.438-.312.28-.47.656-.156.375-.156.813 0 .563.266.938.28.36.734.625.453.266 1.03.453.578.188 1.172.39.61.203 1.172.47.578.25 1.03.64.453.39.72.97.28.563.28 1.39 0 .875-.297 1.656-.297.766-.875 1.344-.562.563-1.406.89-.828.328-1.89.328-1.297 0-2.375-.47-1.062-.484-1.812-1.28l.516-.86q.078-.11.188-.172.11-.078.234-.078.188 0 .438.22.266.203.64.47.375.25.906.453.547.203 1.313.203.64 0 1.14-.172.516-.172.86-.484.36-.328.547-.78.188-.453.188-1 0-.61-.28-.984-.28-.39-.734-.656-.437-.266-1.016-.437-.562-.187-1.172-.375-.594-.203-1.172-.453-.578-.25-1.03-.64-.437-.406-.72-1-.266-.61-.266-1.5 0-.703.266-1.36.28-.672.797-1.187.53-.516 1.297-.812.766-.312 1.766-.312 1.125 0 2.047.36.922.344 1.61 1.016l-.437.86zm6.528 1.688q.844 0 1.563.28.72.28 1.234.828.53.53.813 1.328.297.78.297 1.78 0 .39-.078.53-.078.125-.312.125h-6.297q.016.89.234 1.563.234.656.625 1.11.39.438.938.656.547.22 1.203.22.625 0 1.078-.14.453-.156.78-.312.328-.172.547-.312.22-.156.375-.156.22 0 .328.156l.47.61q-.312.375-.75.656-.422.266-.922.453-.484.172-1.016.25-.516.094-1.016.094-.984 0-1.812-.328-.828-.328-1.437-.97-.594-.64-.937-1.578-.328-.937-.328-2.172 0-.984.297-1.844.313-.86.875-1.484.578-.625 1.39-.984.828-.36 1.86-.36zm.03 1.22q-1.203 0-1.89.703-.687.688-.86 1.922h5.14q0-.578-.172-1.062-.156-.484-.47-.828-.297-.36-.75-.547-.437-.187-1-.187zm5.995 8.375v-9.453h.953q.266 0 .375.11.11.094.14.344l.11 1.484q.484-.984 1.188-1.547.72-.562 1.688-.562.39 0 .703.094.328.094.594.25l-.22 1.234q-.062.234-.28.234-.14 0-.406-.078-.266-.094-.75-.094-.875 0-1.453.5-.578.5-.984 1.47v6.016h-1.656zm6.33-9.453h1.36q.188 0 .313.11.14.094.203.234l2.39 6.094q.14.328.203.672.078.328.14.656.078-.328.156-.656.094-.344.22-.672l2.422-6.094q.063-.14.188-.234.125-.11.313-.11h1.297l-3.86 9.453h-1.5l-3.844-9.453zm12.583 0v9.453h-1.656v-9.453h1.656zm.375-2.97q0 .25-.094.47-.094.203-.266.375-.156.156-.375.25-.22.094-.453.094-.25 0-.47-.094-.203-.094-.36-.25-.156-.172-.25-.375-.094-.22-.094-.47 0-.234.094-.453.094-.22.25-.375.156-.172.36-.266.22-.094.47-.094.234 0 .453.094.22.094.375.266.172.156.266.375.094.22.094.453zm9 4.656q-.078.094-.156.156-.078.047-.22.047-.14 0-.297-.11-.156-.11-.422-.25-.25-.14-.61-.25-.36-.125-.875-.125-.687 0-1.22.25-.53.234-.89.703-.36.47-.547 1.14-.187.656-.187 1.47 0 .86.203 1.53.203.672.547 1.125.36.453.86.688.516.234 1.156.234.594 0 .984-.14.39-.156.656-.328.266-.172.422-.312.172-.156.344-.156.22 0 .313.156l.47.61q-.61.766-1.53 1.11-.922.344-1.953.344-.89 0-1.656-.312-.75-.328-1.312-.953-.562-.625-.89-1.53-.312-.906-.312-2.062 0-1.047.297-1.937.297-.906.86-1.547.563-.656 1.39-1.016.828-.36 1.906-.36.984 0 1.75.328.766.313 1.36.89l-.437.61zm6.01-1.828q.844 0 1.563.28.72.28 1.234.828.53.53.813 1.328.297.78.297 1.78 0 .39-.078.53-.078.125-.312.125h-6.297q.016.89.234 1.563.234.656.625 1.11.39.438.938.656.547.22 1.203.22.625 0 1.078-.14.453-.156.78-.312.328-.172.547-.312.22-.156.375-.156.22 0 .328.156l.47.61q-.312.375-.75.656-.422.266-.922.453-.484.172-1.016.25-.516.094-1.016.094-.984 0-1.812-.328-.828-.328-1.437-.97-.594-.64-.937-1.578-.328-.937-.328-2.172 0-.984.297-1.844.313-.86.875-1.484.578-.625 1.39-.984.828-.36 1.86-.36zm.03 1.22q-1.203 0-1.89.703-.687.688-.86 1.922h5.14q0-.578-.172-1.062-.156-.484-.47-.828-.297-.36-.75-.547-.437-.187-1-.187z" class="C"/><path d="M459.063 167.88v61.165" class="B C D"/><path stroke="#666" d="M459.063 167.88v61.165" class="E F G M"/><path d="M163.26 91.45h225.26" class="B C D"/><g stroke="#1a1a1a" stroke-width="2"><path d="M163.26 91.45h213.26" class="E F"/><path fill="#1a1a1a" d="M376.52 94.755l9.076-3.303-9.076-3.303z" class="B"/></g><g class="C"><path d="M873.984 415.496H960v41.29h-86.016z" class="B D"/><path d="M898.822 442.416l1.14-9.453h.828q.563 0 .563.547l-.125 1.703q.703-1.187 1.53-1.78.828-.61 1.75-.61.953 0 1.406.656.47.656.47 1.89.703-1.297 1.578-1.922.89-.625 1.86-.625 1.047 0 1.563.688.516.672.516 1.953 0 .22-.016.453-.016.234-.047.484l-.703 6.016h-1.64l.72-6.016q.047-.453.047-.828 0-.703-.234-1.03-.234-.328-.78-.328-.39 0-.797.203-.406.188-.78.578-.375.39-.703.97-.312.563-.562 1.313l-.61 5.14h-1.64l.72-6.016q.03-.25.047-.47.016-.234.016-.422 0-.672-.22-.984-.22-.312-.766-.312-.453 0-.875.22-.406.22-.78.656-.36.422-.672 1.03-.312.61-.578 1.375l-.594 4.922h-1.625zm21.57 0h-.86q-.328 0-.453-.156-.11-.172-.11-.422l.172-1.906q-.328.594-.72 1.078-.39.484-.828.828-.422.328-.906.516-.47.188-.984.188-.562 0-1.016-.22-.453-.22-.78-.64-.328-.422-.5-1.03-.172-.625-.172-1.437 0-.844.203-1.64.22-.797.594-1.5.39-.703.922-1.297.547-.594 1.22-1.03.672-.437 1.438-.672.766-.234 1.594-.234.61 0 1.188.094.578.094 1.125.344l-1.125 9.14zm-4.062-1.25q.453 0 .89-.28.438-.28.828-.78.39-.516.734-1.203.344-.703.61-1.53l.39-3.25q-.203-.047-.406-.062-.187-.016-.39-.016-.562 0-1.094.188-.516.188-.97.516-.453.328-.828.78-.375.438-.64.984-.266.547-.422 1.156-.14.61-.14 1.25 0 2.25 1.438 2.25zm12.625-6.687q-.078.11-.156.172-.078.047-.187.047-.125 0-.28-.094-.156-.11-.375-.234-.22-.14-.547-.234-.312-.11-.75-.11-.422 0-.766.125-.344.11-.61.313-.25.203-.39.484-.125.266-.125.578 0 .438.28.703.297.25.734.453.438.188.938.36.516.172.953.453.438.266.734.688.297.422.297 1.094 0 .656-.266 1.25-.25.594-.734 1.047-.484.453-1.156.734-.672.266-1.516.266-.906 0-1.61-.328-.687-.328-1.125-.828l.406-.625q.078-.125.172-.187.11-.078.266-.078.156 0 .297.14.156.125.375.297.234.156.563.297.344.125.875.125.453 0 .813-.14.375-.14.625-.375.266-.234.39-.547.14-.312.14-.672 0-.47-.297-.75-.28-.28-.72-.47-.437-.187-.937-.344-.5-.172-.953-.422-.437-.266-.734-.672-.28-.406-.28-1.094 0-.594.234-1.14.25-.562.688-.984.453-.437 1.094-.687.64-.266 1.438-.266.86 0 1.5.297.656.28 1.11.766l-.406.594zm1.992 6.156q0-.062 0-.14.016-.094.016-.25.016-.172.047-.437.03-.28.078-.72l.594-4.734h-1.047q-.125 0-.203-.062-.078-.078-.078-.22 0-.03 0-.11.016-.094.03-.203.016-.11.016-.22.016-.11.03-.203l1.453-.203.703-2.922q.03-.14.14-.22.11-.094.25-.094h.875l-.406 3.25h2.484l-.14 1.203h-2.5l-.562 4.64q-.047.39-.078.625-.016.234-.03.375-.016.14-.016.203 0 .047 0 .078 0 .47.22.703.22.22.594.22.25 0 .438-.062.188-.078.313-.156.14-.078.234-.14.094-.078.172-.078.063 0 .11.047.047.03.094.11l.344.797q-.453.39-1.03.625-.578.234-1.172.234-.906 0-1.437-.5-.516-.5-.53-1.437zm13.124-5.64q0 .61-.25 1.125-.25.516-.922.938-.672.422-1.86.734-1.172.297-3.016.484 0 .094 0 .203 0 .094 0 .203 0 1.25.53 1.906.547.656 1.656.656.438 0 .78-.094.36-.094.625-.22.28-.14.484-.297.22-.172.39-.312.188-.14.328-.234.156-.094.313-.094.156 0 .297.172l.422.5q-.484.5-.937.86-.453.344-.937.578-.47.234-.984.328-.516.11-1.11.11-.812 0-1.453-.266-.64-.266-1.094-.766-.453-.5-.703-1.203-.234-.72-.234-1.594 0-.734.156-1.453.156-.72.453-1.375.297-.656.72-1.203.422-.562.97-.97.547-.406 1.203-.64.656-.234 1.406-.234.72 0 1.234.203.53.203.86.53.344.313.5.703.172.375.172.72zm-2.86-.97q-.578 0-1.078.25-.5.234-.89.672-.375.422-.64 1-.266.563-.422 1.22 1.438-.172 2.297-.39.875-.234 1.344-.5.47-.266.61-.578.156-.312.156-.64 0-.172-.078-.344-.078-.187-.234-.328-.156-.156-.422-.25-.266-.11-.64-.11zm3.897 8.39l1.14-9.453h.828q.266 0 .406.125.156.11.156.36 0 .047 0 .125 0 .063-.016.14 0 .063-.016.125 0 .047 0 .063l-.125 1.72q.61-1.312 1.36-2.016.75-.72 1.578-.72.39 0 .78.172l-.297 1.594q-.437-.172-.844-.172-.906 0-1.625.89-.703.875-1.172 2.656l-.53 4.39h-1.625z"/><path d="M539.22 308.013h86.016v41.29H539.22z" class="B D"/><path d="M565.095 326.87l-.937 7.75-.422 1.938q-.172.703-.86.703h-.656l1.25-10.375-.922-.11q-.156-.047-.25-.125-.094-.094-.094-.25l.063-.734h1.36l.11-.906q.11-.812.406-1.437.297-.64.766-1.062.47-.437 1.047-.656.594-.234 1.28-.234.578 0 1.047.188l-.156.86q-.016.125-.125.156-.11.03-.266.03-.094 0-.187 0-.094 0-.203 0-.406 0-.75.125-.344.11-.61.375-.25.25-.437.672-.172.422-.25 1.03l-.11.86h2.36l-.156 1.203h-2.297zm10.378.64q0 .61-.25 1.125-.25.516-.922.938-.672.422-1.86.734-1.172.297-3.016.484 0 .094 0 .203 0 .094 0 .203 0 1.25.53 1.906.547.656 1.656.656.438 0 .78-.094.36-.094.625-.22.28-.14.484-.297.22-.172.39-.312.188-.14.328-.234.156-.094.313-.094.156 0 .297.172l.422.5q-.484.5-.937.86-.453.344-.937.578-.47.234-.984.328-.516.11-1.11.11-.812 0-1.453-.266-.64-.266-1.094-.766-.453-.5-.703-1.203-.234-.72-.234-1.594 0-.734.156-1.453.156-.72.453-1.375.297-.656.72-1.203.422-.562.97-.97.547-.406 1.203-.64.656-.234 1.406-.234.72 0 1.234.203.53.203.86.53.344.313.5.703.172.375.172.72zm-2.86-.97q-.578 0-1.078.25-.5.234-.89.672-.375.422-.64 1-.266.563-.422 1.22 1.438-.172 2.297-.39.875-.234 1.344-.5.47-.266.61-.578.156-.312.156-.64 0-.172-.078-.344-.078-.187-.234-.328-.156-.156-.422-.25-.266-.11-.64-.11zm10.85 8.39h-.86q-.328 0-.453-.156-.11-.172-.11-.422l.172-1.906q-.328.594-.72 1.078-.39.484-.828.828-.422.328-.906.516-.47.188-.984.188-.562 0-1.016-.22-.453-.22-.78-.64-.328-.422-.5-1.03-.172-.625-.172-1.437 0-.844.203-1.64.22-.797.594-1.5.39-.703.922-1.297.547-.594 1.22-1.03.672-.437 1.438-.672.766-.234 1.594-.234.61 0 1.188.094.578.094 1.125.344l-1.125 9.14zm-4.062-1.25q.453 0 .89-.28.438-.28.828-.78.39-.516.734-1.203.344-.703.61-1.53l.39-3.25q-.203-.047-.406-.062-.187-.016-.39-.016-.562 0-1.094.188-.516.188-.97.516-.453.328-.828.78-.375.438-.64.984-.266.547-.422 1.156-.14.61-.14 1.25 0 2.25 1.438 2.25zm7.36-.53q0-.062 0-.14.016-.094.016-.25.016-.172.047-.437.03-.28.078-.72l.594-4.734h-1.047q-.125 0-.203-.062-.078-.078-.078-.22 0-.03 0-.11.016-.094.03-.203.016-.11.016-.22.016-.11.03-.203l1.453-.203.703-2.922q.03-.14.14-.22.11-.094.25-.094h.875l-.406 3.25h2.484l-.14 1.203h-2.5l-.562 4.64q-.047.39-.078.625-.016.234-.03.375-.016.14-.016.203 0 .047 0 .078 0 .47.22.703.22.22.594.22.25 0 .438-.062.188-.078.313-.156.14-.078.234-.14.094-.078.172-.078.063 0 .11.047.047.03.094.11l.344.797q-.453.39-1.03.625-.578.234-1.172.234-.906 0-1.437-.5-.516-.5-.53-1.437zm8.202-7.672l-.703 6.016q-.016.188-.03.36-.016.156-.016.313 0 .766.28 1.14.28.375.906.375.422 0 .875-.234.453-.234.875-.656.422-.437.78-1.03.375-.61.64-1.36l.594-4.922h1.656l-1.14 9.453h-.828q-.28 0-.453-.125-.156-.14-.156-.406 0-.016.016-.172.016-.156.016-.344.016-.187.03-.344.016-.156.016-.172l.063-.75q-.75 1.203-1.687 1.828-.922.61-1.922.61-1.047 0-1.64-.72-.578-.72-.578-2.062 0-.172.016-.375.016-.203.03-.406l.72-6.016h1.64zm7.154 9.453l1.14-9.453h.828q.266 0 .406.125.156.11.156.36 0 .047 0 .125 0 .063-.016.14 0 .063-.016.125 0 .047 0 .063l-.125 1.72q.61-1.312 1.36-2.016.75-.72 1.578-.72.39 0 .78.172l-.297 1.594q-.437-.172-.844-.172-.906 0-1.625.89-.703.875-1.172 2.656l-.53 4.39h-1.625zm13.737-7.422q0 .61-.25 1.125-.25.516-.922.938-.672.422-1.86.734-1.172.297-3.016.484 0 .094 0 .203 0 .094 0 .203 0 1.25.53 1.906.547.656 1.656.656.438 0 .78-.094.36-.094.625-.22.28-.14.484-.297.22-.172.39-.312.188-.14.328-.234.156-.094.313-.094.156 0 .297.172l.422.5q-.484.5-.937.86-.453.344-.937.578-.47.234-.984.328-.516.11-1.11.11-.812 0-1.453-.266-.64-.266-1.094-.766-.453-.5-.703-1.203-.234-.72-.234-1.594 0-.734.156-1.453.156-.72.453-1.375.297-.656.72-1.203.422-.562.97-.97.547-.406 1.203-.64.656-.234 1.406-.234.72 0 1.234.203.53.203.86.53.344.313.5.703.172.375.172.72zm-2.86-.97q-.578 0-1.078.25-.5.234-.89.672-.375.422-.64 1-.266.563-.422 1.22 1.438-.172 2.297-.39.875-.234 1.344-.5.47-.266.61-.578.156-.312.156-.64 0-.172-.078-.344-.078-.187-.234-.328-.156-.156-.422-.25-.266-.11-.64-.11z"/><path d="M163.26 141.268h225.26" class="B D"/></g><g stroke="#1a1a1a" stroke-width="2"><path d="M163.26 141.268h213.26" class="E F"/><path fill="#1a1a1a" d="M376.52 144.57l9.076-3.303-9.076-3.303z" class="B"/></g><g class="C"><path d="M243.638 95.714h64.504v41.29h-64.504z" class="B D"/><path d="M267.023 117.7q.125 0 .234.11l.61.672q-.703.813-1.72 1.266-1 .453-2.406.453-1.25 0-2.266-.422-1-.437-1.72-1.203-.703-.766-1.094-1.844-.39-1.094-.39-2.39 0-1.297.422-2.375.422-1.078 1.172-1.844.766-.78 1.828-1.203 1.063-.437 2.344-.437 1.266 0 2.172.39.922.39 1.625 1.063l-.5.72q-.047.078-.125.14-.078.047-.203.047-.11 0-.234-.078-.11-.078-.266-.187-.156-.11-.375-.234-.22-.14-.516-.25-.297-.11-.687-.187-.39-.078-.906-.078-.922 0-1.687.328-.75.313-1.312.89-.547.578-.86 1.422-.312.844-.312 1.875 0 1.078.313 1.922.313.844.844 1.422.53.578 1.25.89.734.297 1.578.297.516 0 .922-.062.406-.062.75-.187.344-.125.64-.312.313-.203.61-.484.14-.125.266-.125zm5.944-5.86q.875 0 1.594.297.72.297 1.22.844.5.547.766 1.313.266.766.266 1.72 0 .97-.266 1.734-.266.766-.766 1.313-.5.547-1.22.844-.72.28-1.594.28-.89 0-1.61-.28-.72-.297-1.22-.844-.5-.547-.78-1.312-.266-.766-.266-1.734 0-.953.266-1.72.28-.766.78-1.312.5-.547 1.22-.844.72-.297 1.61-.297zm0 7.234q1.188 0 1.78-.797.594-.812.594-2.25 0-1.453-.594-2.25-.594-.812-1.78-.812-.61 0-1.062.203-.453.203-.75.61-.297.39-.453.97-.14.563-.14 1.28 0 .72.14 1.297.156.563.453.953.297.375.75.594.453.203 1.063.203zm5.615 3.75v-10.86h.844q.297 0 .39.297l.11.97q.53-.64 1.188-1.016.672-.39 1.547-.39.688 0 1.25.266.578.266.97.797.406.53.625 1.313.22.766.22 1.766 0 .906-.25 1.688-.234.766-.687 1.328-.437.563-1.094.89-.656.313-1.47.313-.75 0-1.28-.25-.53-.25-.937-.703v3.594h-1.422zm3.61-9.844q-.703 0-1.234.328-.516.313-.953.89v3.922q.39.53.86.75.47.22 1.047.22 1.125 0 1.734-.812.61-.812.61-2.312 0-.78-.14-1.344-.14-.578-.406-.937-.266-.375-.656-.53-.375-.172-.86-.172zm7.4 9.484q-.078.156-.187.25-.11.11-.328.11h-1.062l1.484-3.22-3.344-7.64h1.234q.188 0 .28.094.11.094.156.203l2.172 5.11q.078.172.125.36.047.172.094.36.047-.187.11-.36.063-.187.125-.375l2.11-5.094q.047-.125.156-.203.125-.094.25-.094h1.14l-4.516 10.5z"/></g></g><defs ><path id="C" d="M211 354.053a17.83 17.83 0 0 1 17.827-17.827c4.728 0 9.262 1.878 12.605 5.22s5.22 7.878 5.22 12.605a17.83 17.83 0 0 1-17.827 17.827A17.83 17.83 0 0 1 211 354.053z"/><path id="D" d="M287.205 354.053a17.83 17.83 0 0 1 17.827-17.827c4.728 0 9.262 1.878 12.605 5.22s5.22 7.878 5.22 12.605a17.83 17.83 0 0 1-17.827 17.827 17.83 17.83 0 0 1-17.827-17.827z"/><path id="E" d="M72.184 462.163c0-12.55 10.174-22.724 22.724-22.724 6.027 0 11.807 2.394 16.07 6.656s6.656 10.042 6.656 16.07c0 12.55-10.174 22.724-22.724 22.724s-22.724-10.174-22.724-22.724z"/></defs></svg>