<svg version="1.1" viewBox="0.0 0.0 602.1889763779527 204.13123359580052" fill="none" stroke="none" stroke-linecap="square" stroke-miterlimit="10" xmlns:xlink="http://www.w3.org/1999/xlink" xmlns="http://www.w3.org/2000/svg"><clipPath id="p.0"><path d="m0 0l602.18896 0l0 204.13124l-602.18896 0l0 -204.13124z" clip-rule="nonzero"/></clipPath><g clip-path="url(#p.0)"><path fill="#ffffff" d="m0 0l602.18896 0l0 204.13124l-602.18896 0z" fill-rule="evenodd"/><path fill="#cfe2f3" d="m46.947506 64.42979l0 0c0 -10.396286 8.427856 -18.824142 18.824146 -18.824142l112.14699 0c4.992462 0 9.780472 1.9832497 13.310684 5.513462c3.5302124 3.5302124 5.5134583 8.318211 5.5134583 13.31068l0 75.29659c0 10.396286 -8.427856 18.824142 -18.824142 18.824142l-112.14699 0l0 0c-10.39629 0 -18.824146 -8.427856 -18.824146 -18.824142z" fill-rule="evenodd"/><path stroke="#000000" stroke-width="1.0" stroke-linejoin="round" stroke-linecap="butt" d="m46.947506 64.42979l0 0c0 -10.396286 8.427856 -18.824142 18.824146 -18.824142l112.14699 0c4.992462 0 9.780472 1.9832497 13.310684 5.513462c3.5302124 3.5302124 5.5134583 8.318211 5.5134583 13.31068l0 75.29659c0 10.396286 -8.427856 18.824142 -18.824142 18.824142l-112.14699 0l0 0c-10.39629 0 -18.824146 -8.427856 -18.824146 -18.824142z" fill-rule="evenodd"/><path fill="#000000" d="m110.126396 101.79496l0 -1.484375l-3.265625 0l0 1.484375l3.265625 0zm0 1.40625l-3.265625 0l0 1.5625l3.265625 0l0 -1.5625zm-0.234375 5.875q0.234375 0 0.234375 -0.234375l0 -2.671875l-3.265625 0l0 4.46875l-1.484375 0l0 -11.734375l6.234375 0l0 10.3125q0 1.265625 -1.1875 1.265625l-1.484375 0l-0.375 -1.40625l1.328125 0zm3.859375 -9.796875l1.484375 0l0 8.53125l-1.484375 0l0 -8.53125zm3.796875 9.71875q0.21875 0 0.21875 -0.21875l0 -10.09375l1.40625 0q0.75 0.140625 0.078125 0.59375l0 9.875q0 1.25 -1.1875 1.25l-1.640625 0l-0.296875 -1.40625l1.421875 0zm-1.265625 -14.46875q-0.453125 0.8125 -1.109375 1.84375l5.640625 0l0 1.421875l-17.078125 0l0 -1.421875l5.046875 0q-0.4375 -1.03125 -1.03125 -1.78125l1.328125 -0.734375q0.8125 0.8125 1.640625 2.515625l2.734375 0q0.828125 -1.40625 1.34375 -2.8125l1.703125 0.59375q0.296875 0.296875 -0.21875 0.375zm19.218742 12.3125l0 -0.4375l-3.265625 0l0 3.109375q0 1.1875 -1.1875 1.1875l-1.5625 0l-0.21875 -1.625l1.1875 0q0.296875 0 0.296875 -0.296875l0 -2.375l-3.6406174 0l0 0.515625l-1.25 0l0 -4.375l10.906242 0l0 4.296875l-1.265625 0zm-6.3125 1.109375q0.078125 0.375 -0.4375 0.234375q-1.9374924 1.484375 -4.6718674 2.453125l-0.671875 -1.5625q2.96875 -1.125 4.53125 -2.375l1.2499924 1.25zm-6.4531174 -7.640625l7.9374924 0l0 -0.890625l-2.515625 0l-2.3749924 0l0 -5.484375l11.124992 0l0 5.484375l-4.75 0l0 0.890625l7.578125 0l0 1.1875l-16.999992 0l0 -1.1875zm4.3125 -5.1875l0 0.953125l8.609367 0l0 -0.953125l-8.609367 0zm8.609367 2.140625l-8.609367 0l0 0.96875l8.609367 0l0 -0.96875zm-0.15625 6.46875l-8.390617 0l0 1.484375l8.390617 0l0 -1.484375zm2.890625 6.828125q-3.265625 -0.96875 -4.96875 -2.53125l1.109375 -1.03125q1.9375 1.484375 4.6875 2.078125l-0.828125 1.484375z" fill-rule="nonzero"/><path fill="#fff2cc" d="m410.76904 52.41273l0 0c0 9.1409645 32.341248 16.551182 72.236206 16.551182c39.89496 0 72.236206 -7.4102173 72.236206 -16.551182l0 99.30708c0 9.140961 -32.341248 16.551178 -72.236206 16.551178c-39.89496 0 -72.236206 -7.4102173 -72.236206 -16.551178z" fill-rule="evenodd"/><path fill="#fff7e0" d="m410.76904 52.41273l0 0c0 -9.140968 32.341248 -16.551182 72.236206 -16.551182c39.89496 0 72.236206 7.4102135 72.236206 16.551182l0 0c0 9.1409645 -32.341248 16.551182 -72.236206 16.551182c-39.89496 0 -72.236206 -7.4102173 -72.236206 -16.551182z" fill-rule="evenodd"/><path fill="#000000" fill-opacity="0.0" d="m555.24146 52.41273l0 0c0 9.1409645 -32.341248 16.551182 -72.236206 16.551182c-39.89496 0 -72.236206 -7.4102173 -72.236206 -16.551182l0 0c0 -9.140968 32.341248 -16.551182 72.236206 -16.551182c39.89496 0 72.236206 7.4102135 72.236206 16.551182l0 99.30708c0 9.140961 -32.341248 16.551178 -72.236206 16.551178c-39.89496 0 -72.236206 -7.4102173 -72.236206 -16.551178l0 -99.30708" fill-rule="evenodd"/><path stroke="#000000" stroke-width="1.0" stroke-linejoin="round" stroke-linecap="butt" d="m555.24146 52.41273l0 0c0 9.1409645 -32.341248 16.551182 -72.236206 16.551182c-39.89496 0 -72.236206 -7.4102173 -72.236206 -16.551182l0 0c0 -9.140968 32.341248 -16.551182 72.236206 -16.551182c39.89496 0 72.236206 7.4102135 72.236206 16.551182l0 99.30708c0 9.140961 -32.341248 16.551178 -72.236206 16.551178c-39.89496 0 -72.236206 -7.4102173 -72.236206 -16.551178l0 -99.30708" fill-rule="evenodd"/><path fill="#000000" d="m465.94275 105.98061q-0.828125 2.078125 -4.234375 2.890625l7.5 0l0 6.90625l-10.546875 0l0 -6.90625l2.671875 0l-0.734375 -1.265625q4.078125 -0.59375 4.21875 -3.265625l-1.25 0q-0.828125 1.265625 -1.78125 2.015625l-1.046875 -0.828125q1.703125 -1.546875 2.75 -3.859375l1.265625 0.453125q0.296875 0.296875 -0.234375 0.375l-0.296875 0.65625l5.9375 0l0.234375 -0.21875l1.1875 0.8125l-0.375 0.296875q-0.515625 0.890625 -1.859375 2.234375l-1.109375 -0.75q0.59375 -0.515625 1.109375 -1.1875l-3.109375 0q1.25 2.453125 6.0 3.34375l-0.59375 1.40625q-4.078125 -0.734375 -5.703125 -3.109375zm5.1875 12.84375q-3.40625 -0.515625 -5.71875 -1.9375l1.125 -1.03125q2.375 1.1875 5.046875 1.484375l-0.453125 1.484375zm-15.0625 -1.265625q3.1875 -0.453125 5.265625 -1.703125l1.109375 1.03125q0.296875 0.53125 -0.4375 0.296875q-2.375 1.1875 -5.421875 1.78125l-0.515625 -1.40625zm11.65625 -6.6875l0 -1.109375l-7.578125 0l0 1.109375l7.578125 0zm-9.953125 -8.609375q1.109375 0.53125 2.453125 1.265625l-0.96875 1.265625q-0.96875 -0.59375 -2.453125 -1.265625l0.96875 -1.265625zm-0.671875 6.53125q-0.140625 0.75 -0.515625 0.078125l-0.8125 -1.265625q2.21875 -0.8125 4.0 -1.921875l0.75 1.109375q-1.78125 1.1875 -3.421875 2.0zm10.625 4.09375l0 -1.125l-7.578125 0l0 1.125l7.578125 0zm0 2.0l0 -1.109375l-7.578125 0l0 1.109375l7.578125 0zm6.671875 0.21875q3.125 -2.453125 3.9375 -5.125l-3.421875 0l0 -1.40625l3.421875 0l0 -6.609375l1.40625 0q0.59375 0.078125 0.078125 0.453125l0 6.15625l3.046875 0l0 1.40625l-3.046875 0l0 0.96875q1.859375 1.109375 3.046875 2.453125l-0.890625 1.484375q-1.1875 -1.40625 -2.15625 -2.15625l0 6.171875l-1.484375 0l0 -5.71875q-0.96875 1.78125 -2.96875 3.40625l-0.96875 -1.484375zm6.015625 -7.71875q0.734375 -1.625 1.40625 -4.0l1.5625 0.515625q0.375 0.296875 -0.15625 0.296875q-0.734375 2.21875 -1.40625 3.78125l-1.40625 -0.59375zm-4.078125 -3.5625q1.03125 1.78125 1.40625 3.421875l-1.484375 0.59375q-0.375 -1.484375 -1.34375 -3.421875l1.421875 -0.59375zm12.828125 -1.625q0.59375 0.0625 0.078125 0.4375l0 9.421875l2.0 -0.515625l0.453125 1.5625l-2.453125 0.515625l0 5.28125l-1.484375 0l0 -4.90625l-4.0 0.890625l-0.375 -1.5625l4.375 -0.890625l0 -10.234375l1.40625 0zm-4.21875 2.140625q1.40625 0.890625 2.21875 1.78125l-1.03125 1.34375q-0.671875 -0.671875 -2.15625 -1.859375l0.96875 -1.265625zm-0.234375 4.09375q1.125 0.65625 2.234375 1.78125l-1.046875 1.328125q-0.890625 -0.96875 -2.140625 -1.859375l0.953125 -1.25zm18.484375 -6.53125q0.75 0.140625 0.078125 0.59375l0 1.03125l6.671875 0l0 1.1875l-13.65625 0l0 8.234375q0 3.640625 -1.78125 5.796875l-1.1875 -1.1875q1.484375 -1.9375 1.484375 -5.125l0 -8.90625l6.765625 0l0 -1.625l1.625 0zm-0.734375 4.453125l0 -1.046875l1.40625 0q0.59375 0.078125 0.078125 0.453125l0 0.59375l5.5625 0l0 1.1875l-5.5625 0l0 1.03125l4.078125 0l0 5.421875l-4.078125 0l0 1.1875l6.453125 0l0 1.1875l-6.453125 0l0 2.53125l-1.484375 0l0 -2.53125l-5.71875 0l0 -1.1875l5.71875 0l0 -1.1875l-2.078125 0l-2.078125 0l0 -5.421875l4.15625 0l0 -1.03125l-4.828125 0l0 -1.1875l4.828125 0zm4.296875 3.40625l-2.8125 0l0 1.046875l2.8125 0l0 -1.046875zm-4.296875 0l-2.90625 0l0 1.046875l2.90625 0l0 -1.046875zm0 1.9375l-2.90625 0l0 1.109375l2.90625 0l0 -1.109375zm4.296875 0l-2.8125 0l0 1.109375l2.8125 0l0 -1.109375z" fill-rule="nonzero"/><path fill="#000000" fill-opacity="0.0" d="m196.74278 102.07809l214.01576 0" fill-rule="evenodd"/><path stroke="#000000" stroke-width="4.0" stroke-linejoin="round" stroke-linecap="butt" d="m196.74278 102.07809l190.01576 0" fill-rule="evenodd"/><path fill="#000000" stroke="#000000" stroke-width="4.0" stroke-linecap="butt" d="m386.75854 108.68501l18.152374 -6.606926l-18.152374 -6.6069336z" fill-rule="evenodd"/></g></svg>