<svg version="1.1" xmlns="http://www.w3.org/2000/svg" xmlns:xlink="http://www.w3.org/1999/xlink" width="326" height="290"><defs/><g><g/><g/><g/><g><rect fill="white" stroke="none" x="0" y="0" width="331" height="290"/></g><g/><g><path fill="none" stroke="black" paint-order="fill stroke markers" d=" M 40.56776798703076 88.04674578699999 L 40.56776798703076 290.603266707" stroke-miterlimit="10" stroke-width="1.3612669416666667" stroke-dasharray="12.565541,5.445067766666667"/><path fill="none" stroke="black" paint-order="fill stroke markers" d=" M 208.8547344022 88.04674578699999 L 208.8547344022 290.603266707" stroke-miterlimit="10" stroke-width="1.3612669416666667" stroke-dasharray="12.565541,5.445067766666667"/><path fill="none" stroke="black" paint-order="fill stroke markers" d=" M 290.26051063923074 88.04674578699999 L 290.26051063923074 290.603266707" stroke-miterlimit="10" stroke-width="1.3612669416666667" stroke-dasharray="12.565541,5.445067766666667"/></g><g><path fill="none" stroke="none"/><g><path fill="white" stroke="black" paint-order="fill stroke markers" d=" M 8.167601650000002 43.941696877 L 72.96793432406153 43.941696877 L 72.96793432406153 88.04674578699999 L 8.167601650000002 88.04674578699999 L 8.167601650000002 43.941696877 Z" stroke-miterlimit="10" stroke-width="2.613632528" stroke-dasharray=""/></g><g><g/><text fill="black" stroke="none" font-family="sans-serif" font-size="11pt" font-style="normal" font-weight="normal" text-decoration="normal" x="25.8912972305" y="71.711542487" text-anchor="start" dominant-baseline="alphabetic" xml:space="preserve">背景</text></g><path fill="none" stroke="none"/><g><path fill="white" stroke="black" paint-order="fill stroke markers" d=" M 176.45456806516924 43.941696877 L 241.25490073923078 43.941696877 L 241.25490073923078 88.04674578699999 L 176.45456806516924 88.04674578699999 L 176.45456806516924 43.941696877 Z" stroke-miterlimit="10" stroke-width="2.613632528" stroke-dasharray=""/></g><g><g/><text fill="black" stroke="none" font-family="sans-serif" font-size="11pt" font-style="normal" font-weight="normal" text-decoration="normal" x="194.17826364566923" y="71.711542487" text-anchor="start" dominant-baseline="alphabetic" xml:space="preserve">前景</text></g><g><path fill="white" stroke="black" paint-order="fill stroke markers" d=" M 266.41111382123074 56.029747319 L 266.41111382123074 21.725820389 L 314.10990745723075 21.725820389 L 314.10990745723075 56.029747319" stroke-miterlimit="10" stroke-width="2.7769845610000004" stroke-dasharray=""/><path fill="white" stroke="black" paint-order="fill stroke markers" d=" M 314.10990745723075 20.5333505481 L 314.10871499732707 20.64116109301662 L 314.105137736861 20.748960856968594 L 314.09917603355564 20.85673906006935 L 314.0908304835763 20.964484924588405 L 314.0801019214711 21.072187676029085 L 314.0669914200873 21.179836544206 L 314.05150029046405 21.287420764322043 L 314.0336300817014 21.394929578044856 L 314.0133825808054 21.502352234582652 L 313.9907598125092 21.6096779917593 L 313.9657640390709 21.716896117088513 L 313.9383977600469 21.82399588884712 L 313.90866371204226 21.93096659714718 L 313.87656486843713 22.037797545007013 L 313.84210443908904 22.144478049420858 L 313.8052858700122 22.250997442427174 L 313.7661128430329 22.357345072175423 L 313.7245892754211 22.463510303991256 L 313.6807193194991 22.56948252143996 L 313.6345073622258 22.6752511273881 L 313.5859580247585 22.780805545063224 L 313.5350761619904 22.886135219111527 L 313.48186686206543 22.991229616653374 L 313.4263354458693 23.09607822833659 L 313.36848746649724 23.200670569387384 L 313.3083287086991 23.304996180658804 L 313.2458651883004 23.40904462967667 L 313.18110315160123 23.51280551168278 L 313.1140490747513 23.616268450675403 L 313.04470966310225 23.719423100446857 L 312.9730918505377 23.82225914561813 L 312.899202798779 23.9247663026704 L 312.82304989666994 24.026934320973382 L 312.7446407594371 24.128752983810383 L 312.66398322792907 24.230212109399975 L 312.5810853678316 24.331301551914144 L 312.49595546886167 24.432011202492884 L 312.4086020439383 24.532330990255055 L 312.3190338283311 24.63225088330548 L 312.2272597787871 24.731760889738126 L 312.1332890726346 24.830851058635275 L 312.0371311068661 24.929511481062605 L 311.93879549719793 25.027732291060094 L 311.83829207710914 25.125503666628596 L 311.73563089685797 25.222815830712022 L 311.630822222477 25.319659052175062 L 311.52387653474614 25.416023646776274 L 311.41480452814517 25.511899978136498 L 311.30361710978383 25.607278458702496 L 311.1903253983113 25.70214955070569 L 311.0749407228043 25.796503767115947 L 310.9574746216343 25.890331672590246 L 310.83793884131336 25.983623884416232 L 310.7163453353201 26.076371073450467 L 310.5927062629037 26.168563965051334 L 310.4670339878683 26.260193340006502 L 310.3393410773368 26.351250035454832 L 310.20964030049385 26.44172494580266 L 310.07794462730897 26.531609023634346 L 309.9442672272397 26.62089328061701 L 309.80862146791475 26.709568788399363 L 309.67102091379695 26.79762667950451 L 309.53147932482705 26.885058148216736 L 309.39001065504766 26.97185445146202 L 309.24662905120795 27.05800690968237 L 309.1013488513487 27.143506907703753 L 308.95418458336894 27.228345895597624 L 308.8051509635727 27.31251538953589 L 308.6542628951979 27.3960069726393 L 308.5015354669256 27.47881229581911 L 308.34698395137127 27.56092307861202 L 308.19062380355774 27.64233111000817 L 308.03247065936955 27.723028249272257 L 307.8725403339892 27.803006426757605 L 307.7108488203161 27.882257644713114 L 307.5474122873667 27.96077397808303 L 307.3822470786582 28.038547575299447 L 307.2153697105739 28.115570659067455 L 307.0467968707114 28.19183552714286 L 306.8765454162143 28.267334553102412 L 306.7046323720861 28.34206018710643 L 306.53107492948806 28.416004956653783 L 306.35589044401974 28.489161467329136 L 306.1790964339837 28.561522403542384 L 306.00071057863363 28.633080529260212 L 305.82075071640645 28.70382868872968 L 305.63923484313835 28.773759807193787 L 305.4561811102654 28.842866891598973 L 305.27160782300837 28.911143031294383 L 305.0855334385422 28.978581398722945 L 304.8979765641502 29.045175250104112 L 304.7089559553636 29.110917926108243 L 304.51849051408567 29.175802852522523 L 304.32659928670193 29.239823540908375 L 304.1333014621751 29.30297358925032 L 303.93861637012657 29.365246682596148 L 303.7425634789034 29.426636593688414 L 303.5451623936312 29.487137183587166 L 303.3464328542541 29.546742402283833 L 303.1463947335604 29.605446289306215 L 302.94506803519545 29.663242974314535 L 302.74247289166135 29.720126677688448 L 302.53862956230364 29.776091711105025 L 302.33355843128527 29.831132478107563 L 302.1272800055486 29.885243474665224 L 301.91981491276425 29.938419289723445 L 301.7111838992686 29.990654605745036 L 301.50140782798906 30.041944199241925 L 301.2905076763581 30.092282941297498 L 301.078504534215 30.1416657980795 L 300.86541960169745 30.190087831343412 L 300.651274187121 30.23754419892625 L 300.4360897048487 30.28403015523081 L 300.21988767314946 30.329541051700197 L 300.00268971204633 30.374072337282684 L 299.7845175411543 30.417619558886827 L 299.5653929775088 30.460178361826756 L 299.34533793338346 30.501744490257643 L 299.12437441409935 30.54231378760128 L 298.9025245158243 30.581882196961743 L 298.6798104233633 30.620445761531066 L 298.45625440793987 30.658000624984936 L 298.2318788249694 30.694543031868292 L 298.0067061118231 30.730069327970906 L 297.7807587855847 30.764575960692767 L 297.5540594407985 30.798059479399367 L 297.32663074721006 30.830516535766726 L 297.09849544749926 30.86194388411627 L 296.86967635500594 30.892338381739336 L 296.6401963514487 30.921696989211505 L 296.41007838463656 30.950016770696486 L 296.17934546617454 30.977294894239733 L 295.94802066916213 31.003528632051626 L 295.7161271258864 31.028715360780247 L 295.48368802550823 31.052852561773705 L 295.2507266117441 31.075937821332012 L 295.01726618054124 31.097968830948464 L 294.7833300777482 31.118943387540448 L 294.5489416967803 31.138859393669783 L 294.31412447628026 31.15771485775246 L 294.0789018977746 31.175507894257777 L 293.84329748332505 31.19223672389691 L 293.60733479317673 31.207899673800846 L 293.371037423402 31.222495177687634 L 293.13442900354096 31.236021776019058 L 292.89753319423846 31.24847811614655 L 292.6603736848779 31.259862952446483 L 292.4229741912127 31.27017514644471 L 292.18535845299436 31.279413666930427 L 291.94755023159865 31.287577590059286 L 291.7095733076496 31.29466609944577 L 291.4714514786412 31.300678486244855 L 291.233208556558 31.30561414922287 L 290.9948683654937 31.309472594817628 L 290.75645473926863 31.31225343718779 L 290.5179915190469 31.313956398251428 L 290.27950255095175 31.31458130771386 L 290.0410116836813 31.314128103084656 L 289.8025427661234 31.312596829683912 L 289.56411964497124 31.30998764063768 L 289.32576616233814 31.306300796862697 L 289.0875061533738 31.301536667040267 L 288.8493634438806 31.2956957275794 L 288.6113618479309 31.288778562569174 L 288.37352516548606 31.280785863720332 L 288.1358771800161 31.27171843029609 L 287.8984416561216 31.261577169032243 L 287.661242337157 31.25036309404646 L 287.4243029428565 31.238077326736896 L 287.1876471669622 31.224721095670045 L 286.9512986748544 31.21029573645788 L 286.7152811011854 31.194802691624307 L 286.4796180475158 31.178243510460895 L 286.2443330799547 31.16061984887196 L 286.00944972680264 31.14193346920898 L 285.7749914761994 31.12218624009434 L 285.54098177377443 31.101380136234503 L 285.30744402030314 31.079517238222515 L 285.07440156936616 31.056599732329957 L 284.84187772501446 31.03262991028832 L 284.6098957394387 31.007610169059838 L 284.378478810644 30.98154301059778 L 284.1476500801305 30.954431041596266 L 283.91743263057896 30.926276973229612 L 283.6878494835423 30.897083620881187 L 283.4589235971441 30.866853903861898 L 283.2306778637821 30.835590845118258 L 283.00313510783946 30.803297570930084 L 282.7763180834022 30.769977310597895 L 282.55024947198365 30.735633396119944 L 282.3249518802567 30.70026926185907 L 282.1004478377927 30.663888444199216 L 281.8767597948088 30.62649458119185 L 281.65391011992284 30.588091412192092 L 281.43192109791676 30.54868277748485 L 281.2108149275076 30.50827261790075 L 280.9906137191283 30.46686497442208 L 280.77133949271604 30.42446398777868 L 280.5530141755109 30.381073898033875 L 280.33565959986254 30.33669904416049 L 280.1192975010474 30.291343863606926 L 279.9039495150952 30.245012891853445 L 279.6896371766249 30.197710761958614 L 279.4763819166918 30.149442204096005 L 279.26420506064426 30.10021204508118 L 279.053127825991 30.050025207889014 L 278.8431713202796 29.998886711161404 L 278.63435653898574 29.94680166870541 L 278.4267043634134 29.893775288981875 L 278.2202355586072 29.839812874584574 L 278.01497077127556 29.784919821709988 L 277.8109305277261 29.729101619617655 L 277.6081352318132 29.67236385008127 L 277.4066051628974 29.61471218683051 L 277.2063604738177 29.55615239498365 L 277.0074211888761 29.496690330471075 L 276.8098072018354 29.43633193944969 L 276.61353827392946 29.375083257708297 L 276.4186340318876 29.312950410064026 L 276.22511396597173 29.249939609749873 L 276.032997428027 29.186057157793353 L 275.84230362954713 29.121309442386426 L 275.65305163975313 29.055702938246682 L 275.46526038368626 28.98924420596986 L 275.2789486403156 28.921939891373807 L 275.0941350406602 28.85379672483389 L 274.9108380659261 28.784821520609988 L 274.72907604565796 28.71502117616503 L 274.54886715590635 28.644402671475305 L 274.3702294174101 28.572973068332434 L 274.19318069379415 28.5007395096372 L 274.01773868978336 28.42770921868528 L 273.84392094943195 28.353889498444914 L 273.671744854369 28.279287730826603 L 273.50122762206064 28.20391137594495 L 273.332386304088 28.127767971372624 L 273.1652377844421 28.05086513138663 L 272.99979877783574 27.973210546206882 L 272.8360858280316 27.894811981227186 L 272.6741153061883 27.81567727623871 L 272.51390340922296 27.735814344646005 L 272.3554661581919 27.655231172675677 L 272.19881939668807 27.573935818577773 L 272.04397878925715 27.491936411819957 L 271.89095981983087 27.409241152274568 L 271.7397777901786 27.325858309398654 L 271.59044781837736 27.241796221407014 L 271.44298483729983 27.157063294438398 L 271.29740359312126 27.07166800171489 L 271.1537186438448 26.985618882694595 L 271.0119443578456 26.89892454221772 L 270.87209491243414 26.811593649646056 L 270.7341842924384 26.723634937996092 L 270.59822628880545 26.63505720306569 L 270.4642344972223 26.54586930255453 L 270.3322223167566 26.45608015517834 L 270.20220294851623 26.365698739777034 L 270.0741893943298 26.274734094416832 L 269.9481944554459 26.183195315486472 L 269.8242307312535 26.09109155678756 L 269.7023106180218 25.998432028619217 L 269.5824463076604 25.90522599685704 L 269.4646497865005 25.811482782026534 L 269.34893283409605 25.717211758371064 L 269.23530702204584 25.62242235291444 L 269.1237837128364 25.527124044518214 L 269.01437405870576 25.431326362933806 L 268.9070890005281 25.33503888784955 L 268.80193926671984 25.238271247932712 L 268.6989353721667 25.141033119866645 L 268.59808761717244 25.043334227383127 L 268.4994060864284 24.945184340289984 L 268.4029006480054 24.84659327349414 L 268.308580952367 24.74757088602011 L 268.21645643140397 24.648127080024132 L 268.1265362974918 24.548271799803928 L 268.03882954256886 24.448015030804306 L 267.9533449372376 24.34736679861863 L 267.87009102988725 24.246337167986233 L 267.78907614583926 24.144936241786 L 267.7103083865145 24.043174160026034 L 267.63379562862315 23.941061098829724 L 267.5595455233774 23.83860726941809 L 267.4875654957258 23.735822917088697 L 267.4178627436112 23.63271832019112 L 267.35044423725066 23.52930378909913 L 267.28531671843865 23.425589665179665 L 267.2224866998728 23.32158631975868 L 267.16196046450256 23.21730415308405 L 267.1037440649011 23.112753593285547 L 267.0478433226598 23.00794509533202 L 266.9942638278064 22.90288913998592 L 266.9430109382456 22.797596232755243 L 266.89408977922375 22.692076902842967 L 266.84750524281594 22.58634170209415 L 266.80326198743694 22.48040120394075 L 266.76136443737556 22.374266002344307 L 266.72181678235177 22.267946710736528 L 266.6846229770982 22.161453960957978 L 266.64978674096426 22.05479840219489 L 266.61731155754467 21.94799069991426 L 266.58720067433063 21.841041534797313 L 266.55945710238535 21.733961601671435 L 266.534083616043 21.62676160844071 L 266.511082752631 21.51945227501512 L 266.4904568122165 21.412044332238587 L 266.4722078573764 21.30454852081588 L 266.456337712991 21.19697559023857 L 266.4428479660615 21.08933629771006 L 266.4317399655513 20.98164140706991 L 266.42301482225116 20.87390168771744 L 266.41667340866826 20.7661279135348 L 266.4127163589386 20.658330861809592 L 266.4111440687639 20.55052131215717 L 266.4119566953719 20.442710045442645 L 266.41515415750047 20.334907842702854 L 266.4207361354062 20.227125484068235 L 266.42870207089584 20.119373747684833 L 266.43905116738256 20.011663408636494 L 266.45178238996533 19.904005237867363 L 266.46689446553245 19.7964100011048 L 266.484385882889 19.688888457782824 L 266.50425489290785 19.581451359966163 L 266.5264995087045 19.47410945127507 L 266.5511175058359 19.366873465810958 L 266.5781064225229 19.259754127083017 L 266.60746355989636 19.15276214693585 L 266.6391859822669 19.04590822447831 L 266.6732705174187 18.939203045013606 L 266.7097137569268 18.832657278970757 L 266.7485120564975 18.72628158083758 L 266.7896615363332 18.620086588095244 L 266.8331580815202 18.51408292015453 L 266.8789973424403 18.408281177293887 L 266.9271747352055 18.302691939599445 L 266.97768544211675 18.197325765906974 L 267.0305244121454 18.092193192746045 L 267.0856863614385 17.987304733286358 L 267.1431657738471 17.882670876286454 L 267.2029569014778 17.77830208504484 L 267.2650537652678 17.674208796353664 L 267.3294501555823 17.570401419455052 L 267.3961396328361 17.46689033500019 L 267.46511552813683 17.36368589401126 L 267.5363709439527 17.260798416846367 L 267.6098987548013 17.158238192167477 L 267.6856916079629 17.056015475911597 L 267.76374192421537 16.954140490265164 L 267.8440418985921 16.85262342264185 L 267.92658350116255 16.751474424663822 L 268.01135847783524 16.650703611146586 L 268.0983583511832 16.550321059087512 L 268.1875744212916 16.450336806658164 L 268.2789977666277 16.35076085220046 L 268.37261924493316 16.25160315322686 L 268.46842949413826 16.15287362542464 L 268.5664189332978 16.054582141664305 L 268.66657776354964 15.956738531012315 L 268.76889596909416 15.859352577748204 L 268.8733633181961 15.762434020386143 L 268.97996936420753 15.665992550701102 L 269.0887034466127 15.570037812759686 L 269.1995546920941 15.47457940195572 L 269.31251201561946 15.379626864050742 L 269.4275641215505 15.285189694219413 L 269.54469950477267 15.191277336100018 L 269.66390645184515 15.097899180850114 L 269.7851730421726 15.005064566207405 L 269.90848714919696 14.912782775555993 L 270.0338364416104 14.821063036998048 L 270.1612083845881 14.729914522430988 L 270.2905902410419 14.639346346630315 L 270.42196907289394 14.549367566338134 L 270.55533174237064 14.459987179357494 L 270.690664913316 14.371214123652608 L 270.82795505252585 14.283057276455072 L 270.9671884311006 14.195525453376138 L 271.1083511258185 14.108627407525177 L 271.2514290205276 14.022371828634352 L 271.39640780755775 13.936767342189675 L 271.54327298915103 13.851822508568457 L 271.69200987891173 13.76754582218327 L 271.8426036032747 13.683945710632521 L 271.9950391029931 13.601030533857704 L 272.1493011346439 13.518808583307395 L 272.30537427215256 13.437288081108132 L 272.4632429083353 13.356477179242205 L 272.6228912564602 13.276383958732456 L 272.78430335182543 13.19701642883419 L 272.9474630533559 13.11838252623426 L 273.11235404521744 13.040490114257395 L 273.2789598384483 12.963346982079887 L 273.44726377260804 12.886960843950664 L 273.61724901744344 12.811339338419888 L 273.78889857457165 12.73649002757509 L 273.9621952791801 12.662420396284984 L 274.1371218017426 12.589137851450971 L 274.31366064975276 12.516649721266472 L 274.4917941694728 12.444963254484088 L 274.6715045476994 12.37408561969077 L 274.8527738135443 12.304023904590922 L 275.035583840232 12.234785115297683 L 275.2199163469122 12.166376175632273 L 275.40575290048787 12.098803926431655 L 275.59307491745847 12.032075124864438 L 275.7818636657785 11.966196443755171 L 275.97210026673025 11.901174470917068 L 276.1637656968124 11.837015708493228 L 276.35684078964147 11.773726572306426 L 276.55130623786914 11.71131339121754 L 276.7471425951127 11.64978240649267 L 276.94433027789955 11.589139771179015 L 277.1428495676257 11.529391549489564 L 277.3426806125278 11.470543716196701 L 277.5438034296676 11.412602156034716 L 277.7461979069312 11.355572663111337 L 277.94984380503945 11.299460940328336 L 278.1547207595723 11.244272598811229 L 278.3608082830049 11.190013157348178 L 278.56808576675684 11.136688041838113 L 278.77653248325237 11.084302584748148 L 278.9861275879935 11.03286202458034 L 279.1968501216445 10.982371505347833 L 279.40867901212755 10.932836076060482 L 279.62159307673016 10.88426069021993 L 279.83557102422327 10.836650205324288 L 280.05059145699045 10.790009382382364 L 280.2666328731676 10.74434288543759 L 280.48367366879324 10.6996552811016 L 280.70169213996854 10.655951038097594 L 280.92066648502805 10.613234526813446 L 281.1405748067199 10.571510018864695 L 281.361395114395 10.530781686667359 L 281.58310532620675 10.49105360302072 L 281.8056832713186 10.452329740700035 L 282.0291066921216 10.41461397205927 L 282.2533532464598 10.377910068643855 L 282.47840050986474 10.342221700813546 L 282.7042259777975 10.307552437375389 L 282.9308070678995 10.273905745226832 L 283.1581211222506 10.241284989009054 L 283.3861454096347 10.209693430770495 L 283.6148571278132 10.179134229640646 L 283.8442334058048 10.14961044151416 L 284.07425130617287 10.121125018745243 L 284.3048878273191 10.093680809852438 L 284.53611990578344 10.067280559233762 L 284.7679244185508 10.041926906892275 L 285.00027818536313 10.017622388172084 L 285.2331579710373 9.99436943350481 L 285.4665404877889 9.972170368166541 L 285.70040239756065 9.95102741204531 L 285.9347203143565 9.930942679419111 L 286.16947080658 9.91191817874447 L 286.4046303993776 9.893955812455602 L 286.640175576986 9.877057376774163 L 286.8760827850836 9.861224561529642 L 287.11232843314633 9.846458949990371 L 287.34888889680616 9.832762018705198 L 287.5857405202139 9.820135137355836 L 287.8228596184046 9.808579568619898 L 288.060222479666 9.798096468044628 L 288.2978053679098 9.78868688393135 L 288.5355845250451 9.780351757230632 L 288.77353617335444 9.773091921448197 L 289.0116365178712 9.766908102561576 L 289.2498617487594 9.761800918947504 L 289.4881880436944 9.757770881320084 L 289.7265915702453 9.754818392679725 L 289.9650484882583 9.752943748272825 L 290.2035349522401 9.752147135562266 L 290.4420271137431 9.752428634208655 L 290.68050112375 9.753788216062361 L 290.91893313505835 9.756225745166333 L 291.15729930466586 9.75974097776969 L 291.3955757961541 9.764333562352103 L 291.63373878207256 9.770003039658938 L 291.8717644463211 9.776748842747192 L 292.1096289865316 9.784570297042176 L 292.34730861644834 9.793466620404978 L 292.5847795683063 9.803436923210677 L 292.8220180952083 9.8144802084373 L 293.0590004734993 9.826595371765528 L 293.2957030051388 9.83978120168912 L 293.5321020200712 9.854036379636078 L 293.7681738785917 9.869359480100481 L 294.0038949737114 9.885748970785057 L 294.2392417335171 9.903203212754391 L 294.47419062352895 9.921720460598834 L 294.70871814905377 9.941298862609031 L 294.9428008575344 9.961936460961097 L 295.1764153408951 9.983631191912394 L 295.40953823788226 10.006380886007905 L 295.6421462364004 10.030183268297181 L 295.87421607584344 10.055035958561827 L 296.1057245494209 10.080936471553528 L 296.3366485064784 10.107882217242567 L 296.56696485481257 10.13587050107683 L 296.7966505629806 10.164898524251257 L 297.0256826626029 10.194963383987721 L 297.2540382506606 10.226062073825304 L 297.481694491785 10.258191483920934 L 297.7086286205418 10.291348401360379 L 297.93481794370723 10.325529510479525 L 298.1602398425374 10.360731393195941 L 298.3848717750304 10.396950529350695 L 298.60869127818006 10.434183297060352 L 298.8316759702226 10.472425973079169 L 299.0538035528747 10.51167473317141 L 299.2750518135631 10.551925652493777 L 299.4953986276462 10.593174705987877 L 299.7148219606262 10.635417768782737 L 299.9332998703525 10.678650616607278 L 300.15081050921646 10.722868926212747 L 300.36733212633527 10.76806827580503 L 300.58284306972763 10.814244145486835 L 300.79732178847894 10.861391917709673 L 301.01074683489594 10.909506877735609 L 301.2230968666519 10.95858421410874 L 301.4343506489205 11.008619019136324 L 301.6444870564997 11.059606289379555 L 301.85348507592374 11.111540926153898 L 302.0613238075649 11.164417736038953 L 302.26798246772324 11.218231431397797 L 302.4734403907049 11.272976630905736 L 302.67767703088884 11.328647860088443 L 302.88067196478124 11.385239551869391 L 303.0824048930578 11.442746047126562 L 303.28285564259386 11.501161595258353 L 303.4820041684815 11.560480354758626 L 303.6798305560341 11.620696393800868 L 303.87631502277776 11.681803690831353 L 304.07143792042956 11.7437961351713 L 304.26517973686225 11.806667527627935 L 304.45752109805574 11.870411581114405 L 304.6484427700341 11.935021921278484 L 304.8379256607893 12.000492087139994 L 305.02595082219017 12.066815531736909 L 305.21249945187725 12.133985622780036 L 305.39755289514295 12.201995643316248 L 305.5810926467973 12.270838792400168 L 305.76310035301793 12.340508185774253 L 305.94355781318603 12.410996856557224 L 306.1224469817058 12.482297755940746 L 306.2997499698097 12.554403753894292 L 306.4754490473464 12.627307639878161 L 306.6495266445548 12.701002123564503 L 306.82196535382 12.775479835566365 L 306.992747931415 12.85073332817461 L 307.16185729922427 12.926755076102687 L 307.3292765464519 13.003537477239155 L 307.4949889313128 13.081072853407886 L 307.6589778827065 13.159353451135875 L 307.8212270018745 13.238371442428583 L 307.9817200640401 13.318118925552731 L 308.14044102003083 13.398587925826458 L 308.2973739978834 13.4797703964168 L 308.4525033044308 13.561658219144345 L 308.6058134268716 13.64424320529506 L 308.75728903432133 13.727517096439154 L 308.9069149793455 13.811471565256904 L 309.0546762994743 13.89609821637139 L 309.20055821869875 13.981388587188025 L 309.3445461489486 14.0673341487408 L 309.48662569155084 14.153926306545182 L 309.6267826386695 14.241156401457552 L 309.76500297472677 14.329015710541107 L 309.90127287780416 14.417495447938157 L 310.03557872102493 14.506586765748693 L 310.1679070739167 14.59628075491518 L 310.29824470375445 14.68656844611344 L 310.4265785768838 14.777440810649601 L 310.55289586002436 14.868888761362928 L 310.67718392155314 14.96090315353456 L 310.7994303327675 15.05347478580196 L 310.9196228691282 15.146594401079039 L 311.0377495114818 15.240252687481874 L 311.15379844726255 15.33444027925987 L 311.2677580716734 15.429147757732338 L 311.37961698884703 15.524365652230356 L 311.48936401298494 15.62008444104382 L 311.59698816947605 15.716294552373615 L 311.70247869599456 15.812986365288783 L 311.80582504357557 15.910150210688608 L 311.90701687767057 16.00777637226952 L 312.00604407918036 16.105855087496717 L 312.10289674546743 16.204376548580406 L 312.19756519134575 16.30333090345658 L 312.29003995004973 16.402708256772215 L 312.3803117741805 16.502498670874793 L 312.4683716366308 16.602692166806058 L 312.55421073148796 16.703278725299917 L 312.63782047491384 16.80424828778434 L 312.7191925060039 16.90559075738722 L 312.7983186876227 17.00729599994605 L 312.8751911072182 17.10935384502132 L 312.9498020776124 17.211754086913583 L 313.0221441377704 17.314486485683975 L 313.0922100535465 17.41754076817823 L 313.15999281840755 17.52090662905398 L 313.22548565413354 17.62457373181127 L 313.28868201149544 17.728531709826218 L 313.3495755709102 17.83277016738765 L 313.4081602430726 17.93727868073668 L 313.46443016956425 18.04204679910906 L 313.5183797234394 18.147064045780258 L 313.5700035097876 18.252319919113123 L 313.6192963662733 18.357803893608033 L 313.6662533636519 18.463505420955443 L 313.7108698062628 18.569413931090704 L 313.7531412324988 18.675518833251058 L 313.7930634152527 18.781809517034706 L 313.8306323623393 18.88827535346185 L 313.8658443168954 18.994905696037566 L 313.8986957577547 19.101689881816455 L 313.9291833998006 19.208617232468924 L 313.95730419429424 19.31567705534902 L 313.98305532917965 19.422858644563664 L 314.0064342293648 19.530151282043253 L 314.0274385569791 19.637544238613454 L 314.0460662116074 19.745026775068098 L 314.06231533049964 19.852588143243114 L 314.0761842887576 19.960217587091314 L 314.08767169949687 20.067904343758006 L 314.096776413986 20.17563764465726 L 314.10349752176114 20.283406716548765 L 314.10783435071716 20.39120078261514 L 314.10978646717473 20.49900906353961 M 314.10990745723075 54.8372774781 L 314.10871499732707 54.94508802301662 L 314.105137736861 55.05288778696859 L 314.09917603355564 55.160665990069354 L 314.0908304835763 55.2684118545884 L 314.0801019214711 55.376114606029084 L 314.0669914200873 55.483763474206 L 314.05150029046405 55.591347694322046 L 314.0336300817014 55.698856508044855 L 314.0133825808054 55.80627916458265 L 313.9907598125092 55.913604921759294 L 313.9657640390709 56.02082304708851 L 313.9383977600469 56.12792281884712 L 313.90866371204226 56.23489352714718 L 313.87656486843713 56.34172447500701 L 313.84210443908904 56.44840497942086 L 313.8052858700122 56.55492437242717 L 313.7661128430329 56.66127200217542 L 313.7245892754211 56.76743723399125 L 313.6807193194991 56.87340945143996 L 313.6345073622258 56.979178057388104 L 313.5859580247585 57.08473247506323 L 313.5350761619904 57.190062149111526 L 313.48186686206543 57.295156546653374 L 313.4263354458693 57.40000515833659 L 313.36848746649724 57.50459749938738 L 313.3083287086991 57.60892311065881 L 313.2458651883004 57.71297155967667 L 313.18110315160123 57.81673244168278 L 313.1140490747513 57.9201953806754 L 313.04470966310225 58.023350030446856 L 312.9730918505377 58.12618607561813 L 312.899202798779 58.228693232670395 L 312.82304989666994 58.33086125097338 L 312.7446407594371 58.43267991381038 L 312.66398322792907 58.534139039399975 L 312.5810853678316 58.63522848191415 L 312.49595546886167 58.73593813249288 L 312.4086020439383 58.83625792025505 L 312.3190338283311 58.93617781330548 L 312.2272597787871 59.03568781973813 L 312.1332890726346 59.13477798863527 L 312.0371311068661 59.23343841106261 L 311.93879549719793 59.33165922106009 L 311.83829207710914 59.42943059662859 L 311.73563089685797 59.52674276071202 L 311.630822222477 59.623585982175065 L 311.52387653474614 59.71995057677627 L 311.41480452814517 59.8158269081365 L 311.30361710978383 59.9112053887025 L 311.1903253983113 60.006076480705694 L 311.0749407228043 60.10043069711595 L 310.9574746216343 60.194258602590246 L 310.83793884131336 60.287550814416235 L 310.7163453353201 60.38029800345047 L 310.5927062629037 60.47249089505134 L 310.4670339878683 60.564120270006505 L 310.3393410773368 60.655176965454835 L 310.20964030049385 60.74565187580266 L 310.07794462730897 60.83553595363435 L 309.9442672272397 60.924820210617014 L 309.80862146791475 61.01349571839936 L 309.67102091379695 61.10155360950451 L 309.53147932482705 61.18898507821673 L 309.39001065504766 61.27578138146202 L 309.24662905120795 61.361933839682365 L 309.1013488513487 61.447433837703755 L 308.95418458336894 61.53227282559762 L 308.8051509635727 61.61644231953589 L 308.6542628951979 61.699933902639295 L 308.5015354669256 61.782739225819114 L 308.34698395137127 61.86485000861202 L 308.19062380355774 61.94625804000817 L 308.03247065936955 62.02695517927226 L 307.8725403339892 62.1069333567576 L 307.7108488203161 62.18618457471311 L 307.5474122873667 62.26470090808303 L 307.3822470786582 62.34247450529945 L 307.2153697105739 62.419497589067454 L 307.0467968707114 62.49576245714286 L 306.8765454162143 62.57126148310241 L 306.7046323720861 62.64598711710643 L 306.53107492948806 62.71993188665378 L 306.35589044401974 62.793088397329136 L 306.1790964339837 62.86544933354239 L 306.00071057863363 62.937007459260215 L 305.82075071640645 63.007755618729675 L 305.63923484313835 63.07768673719379 L 305.4561811102654 63.146793821598976 L 305.27160782300837 63.21506996129438 L 305.0855334385422 63.28250832872294 L 304.8979765641502 63.34910218010411 L 304.7089559553636 63.414844856108246 L 304.51849051408567 63.47972978252252 L 304.32659928670193 63.54375047090838 L 304.1333014621751 63.606900519250324 L 303.93861637012657 63.66917361259615 L 303.7425634789034 63.73056352368841 L 303.5451623936312 63.79106411358716 L 303.3464328542541 63.85066933228383 L 303.1463947335604 63.90937321930622 L 302.94506803519545 63.96716990431453 L 302.74247289166135 64.02405360768844 L 302.53862956230364 64.08001864110503 L 302.33355843128527 64.13505940810757 L 302.1272800055486 64.18917040466522 L 301.91981491276425 64.24234621972344 L 301.7111838992686 64.29458153574504 L 301.50140782798906 64.34587112924193 L 301.2905076763581 64.3962098712975 L 301.078504534215 64.4455927280795 L 300.86541960169745 64.49401476134341 L 300.651274187121 64.54147112892625 L 300.4360897048487 64.58795708523081 L 300.21988767314946 64.63346798170019 L 300.00268971204633 64.67799926728269 L 299.7845175411543 64.72154648888683 L 299.5653929775088 64.76410529182675 L 299.34533793338346 64.80567142025764 L 299.12437441409935 64.84624071760128 L 298.9025245158243 64.88580912696175 L 298.6798104233633 64.92437269153106 L 298.45625440793987 64.96192755498494 L 298.2318788249694 64.9984699618683 L 298.0067061118231 65.0339962579709 L 297.7807587855847 65.06850289069277 L 297.5540594407985 65.10198640939936 L 297.32663074721006 65.13444346576672 L 297.09849544749926 65.16587081411626 L 296.86967635500594 65.19626531173934 L 296.6401963514487 65.2256239192115 L 296.41007838463656 65.25394370069648 L 296.17934546617454 65.28122182423974 L 295.94802066916213 65.30745556205163 L 295.7161271258864 65.33264229078024 L 295.48368802550823 65.35677949177371 L 295.2507266117441 65.37986475133201 L 295.01726618054124 65.40189576094846 L 294.7833300777482 65.42287031754044 L 294.5489416967803 65.44278632366978 L 294.31412447628026 65.46164178775246 L 294.0789018977746 65.47943482425778 L 293.84329748332505 65.49616365389691 L 293.60733479317673 65.51182660380084 L 293.371037423402 65.52642210768764 L 293.13442900354096 65.53994870601906 L 292.89753319423846 65.55240504614655 L 292.6603736848779 65.56378988244649 L 292.4229741912127 65.57410207644472 L 292.18535845299436 65.58334059693043 L 291.94755023159865 65.59150452005929 L 291.7095733076496 65.59859302944577 L 291.4714514786412 65.60460541624485 L 291.233208556558 65.60954107922286 L 290.9948683654937 65.61339952481762 L 290.75645473926863 65.61618036718778 L 290.5179915190469 65.61788332825142 L 290.27950255095175 65.61850823771385 L 290.0410116836813 65.61805503308466 L 289.8025427661234 65.61652375968391 L 289.56411964497124 65.61391457063768 L 289.32576616233814 65.61022772686269 L 289.0875061533738 65.60546359704027 L 288.8493634438806 65.5996226575794 L 288.6113618479309 65.59270549256917 L 288.37352516548606 65.58471279372033 L 288.1358771800161 65.5756453602961 L 287.8984416561216 65.56550409903224 L 287.661242337157 65.55429002404645 L 287.4243029428565 65.5420042567369 L 287.1876471669622 65.52864802567004 L 286.9512986748544 65.51422266645788 L 286.7152811011854 65.4987296216243 L 286.4796180475158 65.48217044046089 L 286.2443330799547 65.46454677887196 L 286.00944972680264 65.44586039920898 L 285.7749914761994 65.42611317009434 L 285.54098177377443 65.4053070662345 L 285.30744402030314 65.38344416822251 L 285.07440156936616 65.36052666232996 L 284.84187772501446 65.33655684028832 L 284.6098957394387 65.31153709905983 L 284.378478810644 65.28546994059778 L 284.1476500801305 65.25835797159627 L 283.91743263057896 65.23020390322961 L 283.6878494835423 65.2010105508812 L 283.4589235971441 65.1707808338619 L 283.2306778637821 65.13951777511826 L 283.00313510783946 65.10722450093009 L 282.7763180834022 65.0739042405979 L 282.55024947198365 65.03956032611994 L 282.3249518802567 65.00419619185907 L 282.1004478377927 64.96781537419922 L 281.8767597948088 64.93042151119185 L 281.65391011992284 64.89201834219209 L 281.43192109791676 64.85260970748485 L 281.2108149275076 64.81219954790075 L 280.9906137191283 64.77079190442208 L 280.77133949271604 64.72839091777868 L 280.5530141755109 64.68500082803388 L 280.33565959986254 64.64062597416049 L 280.1192975010474 64.59527079360693 L 279.9039495150952 64.54893982185345 L 279.6896371766249 64.50163769195862 L 279.4763819166918 64.45336913409601 L 279.26420506064426 64.40413897508118 L 279.053127825991 64.35395213788901 L 278.8431713202796 64.3028136411614 L 278.63435653898574 64.25072859870541 L 278.4267043634134 64.19770221898187 L 278.2202355586072 64.14373980458457 L 278.01497077127556 64.08884675170998 L 277.8109305277261 64.03302854961765 L 277.6081352318132 63.97629078008127 L 277.4066051628974 63.918639116830505 L 277.2063604738177 63.860079324983644 L 277.0074211888761 63.80061726047107 L 276.8098072018354 63.74025886944969 L 276.61353827392946 63.67901018770829 L 276.4186340318876 63.61687734006403 L 276.22511396597173 63.553866539749876 L 276.032997428027 63.48998408779335 L 275.84230362954713 63.42523637238643 L 275.65305163975313 63.359629868246685 L 275.46526038368626 63.29317113596986 L 275.2789486403156 63.225866821373806 L 275.0941350406602 63.15772365483389 L 274.9108380659261 63.088748450609984 L 274.72907604565796 63.01894810616503 L 274.54886715590635 62.94832960147531 L 274.3702294174101 62.87689999833243 L 274.19318069379415 62.8046664396372 L 274.01773868978336 62.73163614868528 L 273.84392094943195 62.65781642844491 L 273.671744854369 62.583214660826606 L 273.50122762206064 62.50783830594495 L 273.332386304088 62.43169490137262 L 273.1652377844421 62.35479206138663 L 272.99979877783574 62.27713747620688 L 272.8360858280316 62.19873891122719 L 272.6741153061883 62.119604206238705 L 272.51390340922296 62.039741274646005 L 272.3554661581919 61.95915810267567 L 272.19881939668807 61.87786274857777 L 272.04397878925715 61.79586334181995 L 271.89095981983087 61.71316808227457 L 271.7397777901786 61.62978523939866 L 271.59044781837736 61.54572315140702 L 271.44298483729983 61.4609902244384 L 271.29740359312126 61.375594931714886 L 271.1537186438448 61.2895458126946 L 271.0119443578456 61.202851472217716 L 270.87209491243414 61.11552057964606 L 270.7341842924384 61.02756186799609 L 270.59822628880545 60.93898413306569 L 270.4642344972223 60.84979623255453 L 270.3322223167566 60.76000708517834 L 270.20220294851623 60.669625669777034 L 270.0741893943298 60.57866102441683 L 269.9481944554459 60.487122245486475 L 269.8242307312535 60.39501848678756 L 269.7023106180218 60.302358958619216 L 269.5824463076604 60.20915292685704 L 269.4646497865005 60.11540971202653 L 269.34893283409605 60.02113868837107 L 269.23530702204584 59.926349282914444 L 269.1237837128364 59.83105097451821 L 269.01437405870576 59.735253292933805 L 268.9070890005281 59.63896581784955 L 268.80193926671984 59.54219817793271 L 268.6989353721667 59.444960049866644 L 268.59808761717244 59.34726115738312 L 268.4994060864284 59.24911127028998 L 268.4029006480054 59.15052020349414 L 268.308580952367 59.05149781602011 L 268.21645643140397 58.95205401002413 L 268.1265362974918 58.85219872980392 L 268.03882954256886 58.75194196080431 L 267.9533449372376 58.651293728618626 L 267.87009102988725 58.550264097986236 L 267.78907614583926 58.448863171785995 L 267.7103083865145 58.34710109002604 L 267.63379562862315 58.244988028829724 L 267.5595455233774 58.14253419941809 L 267.4875654957258 58.03974984708869 L 267.4178627436112 57.93664525019112 L 267.35044423725066 57.833230719099134 L 267.28531671843865 57.72951659517967 L 267.2224866998728 57.62551324975868 L 267.16196046450256 57.521231083084054 L 267.1037440649011 57.41668052328555 L 267.0478433226598 57.311872025332015 L 266.9942638278064 57.20681606998592 L 266.9430109382456 57.10152316275524 L 266.89408977922375 56.996003832842966 L 266.84750524281594 56.89026863209415 L 266.80326198743694 56.78432813394075 L 266.76136443737556 56.6781929323443 L 266.72181678235177 56.57187364073653 L 266.6846229770982 56.465380890957974 L 266.64978674096426 56.35872533219489 L 266.61731155754467 56.25191762991426 L 266.58720067433063 56.144968464797316 L 266.55945710238535 56.037888531671435 L 266.534083616043 55.930688538440705 L 266.511082752631 55.823379205015115 L 266.4904568122165 55.71597126223858 L 266.4722078573764 55.60847545081588 L 266.456337712991 55.50090252023857 L 266.4428479660615 55.39326322771006 L 266.4317399655513 55.28556833706991 L 266.42301482225116 55.17782861771744 L 266.41667340866826 55.0700548435348 L 266.4127163589386 54.96225779180959 L 266.4111440687639 54.85444824215717" stroke-miterlimit="10" stroke-width="2.7769845610000004" stroke-dasharray=""/></g><g><g/><text fill="black" stroke="none" font-family="sans-serif" font-size="11pt" font-style="normal" font-weight="normal" text-decoration="normal" x="268.24580498127176" y="83.14618479699999" text-anchor="start" dominant-baseline="alphabetic" xml:space="preserve">資料庫</text></g></g><g><path fill="white" stroke="black" paint-order="fill stroke markers" d=" M 200.6871327522 187.691485917 L 217.0223360522 187.691485917 L 217.0223360522 233.430055157 L 200.6871327522 233.430055157 L 200.6871327522 187.691485917" stroke-miterlimit="10" stroke-width="1.3612669416666667" stroke-dasharray=""/><g><g><rect fill="white" stroke="none" x="232.43087126918462" y="120.717152387" width="34.253502503061526" height="21.23576429"/></g><text fill="black" stroke="none" font-family="sans-serif" font-size="11pt" font-style="normal" font-weight="normal" text-decoration="normal" x="234.8811517641846" y="135.418835357" text-anchor="start" dominant-baseline="alphabetic" xml:space="preserve">連接</text></g><g><path fill="none" stroke="black" paint-order="fill stroke markers" d=" M 208.8547344022 141.952916677 L 276.8111932555641 141.952916677" stroke-miterlimit="10" stroke-width="1.3612669416666667" stroke-dasharray=""/><g transform="translate(290.26051063923074,141.952916677) translate(-290.26051063923074,-141.952916677)"><path fill="black" stroke="none" paint-order="stroke fill markers" d=" M 276.64784122256407 135.14658196866665 L 290.26051063923074 141.952916677 L 276.64784122256407 148.75925138533333 Z"/></g></g><g><g><rect fill="white" stroke="none" x="88.82422836155385" y="166.455721627" width="63.60644401612305" height="21.23576429"/></g><text fill="black" stroke="none" font-family="sans-serif" font-size="11pt" font-style="normal" font-weight="normal" text-decoration="normal" x="91.27450885655385" y="181.15740459699998" text-anchor="start" dominant-baseline="alphabetic" xml:space="preserve">傳送請求</text></g><g><path fill="none" stroke="black" paint-order="fill stroke markers" d=" M 40.56776798703076 187.691485917 L 187.23781536853335 187.691485917" stroke-miterlimit="10" stroke-width="1.3612669416666667" stroke-dasharray=""/><g transform="translate(200.6871327522,187.691485917) translate(-200.6871327522,-187.691485917)"><path fill="black" stroke="none" paint-order="stroke fill markers" d=" M 187.07446333553332 180.88515120866666 L 200.6871327522 187.691485917 L 187.07446333553332 194.49782062533333 Z"/></g></g><g><g><rect fill="white" stroke="none" x="59.897758558697404" y="212.194290867" width="121.45938362183594" height="21.23576429"/></g><text fill="black" stroke="none" font-family="sans-serif" font-size="11pt" font-style="normal" font-weight="normal" text-decoration="normal" x="62.348039053697406" y="226.89597383699999" text-anchor="start" dominant-baseline="alphabetic" xml:space="preserve">回傳 connectPort</text></g><g><path fill="none" stroke="black" paint-order="fill stroke markers" d=" M 200.6871327522 233.430055157 L 54.01708537069743 233.430055157" stroke-miterlimit="10" stroke-width="1.3612669416666667" stroke-dasharray="6.53408132"/><g transform="translate(40.56776798703076,233.430055157) translate(-40.56776798703076,-233.430055157)"><path fill="black" stroke="none" paint-order="stroke fill markers" d=" M 54.18043740369743 226.62372044866666 L 40.56776798703076 233.430055157 L 54.18043740369743 240.23638986533334 Z"/></g></g></g><g/><g/><g/></g></svg>